<svg width="51" height="51" viewBox="0 0 51 51" fill="none" xmlns="http://www.w3.org/2000/svg">
<path d="M43.0312 23.4062H11.1562C10.601 23.4062 10.0684 23.6268 9.67575 24.0195C9.28309 24.4121 9.0625 24.9447 9.0625 25.5C9.0625 26.0553 9.28309 26.5879 9.67575 26.9805C10.0684 27.3732 10.601 27.5938 11.1562 27.5938H43.0312C43.5865 27.5938 44.1191 27.3732 44.5118 26.9805C44.9044 26.5879 45.125 26.0553 45.125 25.5C45.125 24.9447 44.9044 24.4122 44.5118 24.0195C44.1191 23.6268 43.5865 23.4062 43.0312 23.4062Z" fill="#1D1929" stroke="#1D1929"/>
<path d="M12.5233 25.4999L25.3881 12.6382L25.3882 12.6381C25.7812 12.2451 26.002 11.712 26.002 11.1562C26.002 10.6004 25.7812 10.0673 25.3882 9.67426L25.0346 10.0278L25.3882 9.67426C24.9952 9.28123 24.4621 9.06042 23.9063 9.06042C23.3504 9.06042 22.8174 9.28123 22.4243 9.67426L8.08103 24.0176C8.08089 24.0177 8.08072 24.0179 8.08058 24.018C7.8858 24.2124 7.73127 24.4433 7.6258 24.6975C7.52024 24.9518 7.46591 25.2245 7.46591 25.4999C7.46591 25.7753 7.52024 26.048 7.6258 26.3024C7.73133 26.5567 7.886 26.7878 8.08095 26.9822C8.08097 26.9823 8.081 26.9823 8.08103 26.9823L22.4243 41.3256C22.8174 41.7187 23.3504 41.9395 23.9063 41.9395C24.4621 41.9395 24.9952 41.7187 25.3882 41.3256C25.7812 40.9326 26.002 40.3995 26.002 39.8437C26.002 39.2879 25.7812 38.7548 25.3882 38.3618L25.3881 38.3617L12.5233 25.4999Z" fill="#1D1929" stroke="#1D1929"/>
</svg>
