<svg width="19" height="20" viewBox="0 0 19 20" fill="none" xmlns="http://www.w3.org/2000/svg">
      <path d="M1.3335 13.4286L0.532108 12.6272L0.200163 12.9591V13.4286H1.3335ZM12.7621 2L13.5635 1.19861C13.1209 0.756018 12.4033 0.756018 11.9607 1.19861L12.7621 2ZM17.3335 6.57143L18.1349 7.37282C18.5775 6.93022 18.5775 6.21264 18.1349 5.77004L17.3335 6.57143ZM5.90492 18V19.1333H6.37437L6.70631 18.8014L5.90492 18ZM1.3335 18H0.200163C0.200163 18.6259 0.707573 19.1333 1.3335 19.1333L1.3335 18ZM2.13488 14.23L13.5635 2.80139L11.9607 1.19861L0.532108 12.6272L2.13488 14.23ZM11.9607 2.80139L16.5321 7.37282L18.1349 5.77004L13.5635 1.19861L11.9607 2.80139ZM16.5321 5.77004L5.10354 17.1986L6.70631 18.8014L18.1349 7.37282L16.5321 5.77004ZM5.90492 16.8667H1.3335V19.1333H5.90492V16.8667ZM2.46683 18V13.4286H0.200163V18H2.46683Z" fill="#646464"/>
      </svg>