<svg width="19" height="20" viewBox="0 0 19 20" fill="none" xmlns="http://www.w3.org/2000/svg">
<path fill-rule="evenodd" clip-rule="evenodd" d="M7.55327 1.99023L7.45486 2.48996L7.0784 4.31849C6.4765 4.54835 5.93066 4.87429 5.43747 5.2608L3.59744 4.64557L3.10312 4.49233L2.8468 4.93373L1.58005 7.05156L1.32373 7.49303L1.69906 7.82122L3.12257 9.03221C3.07108 9.34898 3.00471 9.66229 3.00471 9.99506C3.00471 10.3278 3.07108 10.6412 3.12257 10.958L1.69906 12.169L1.32373 12.4972L1.58005 12.9386L2.8468 15.0565L3.10312 15.499L3.59744 15.3446L5.43747 14.7294C5.93066 15.1159 6.4765 15.4418 7.0784 15.6716L7.45486 17.5002L7.55327 18H11.1132L11.2127 17.5002L11.5881 15.6716C12.19 15.4418 12.7358 15.1159 13.229 14.7294L15.069 15.3446L15.5633 15.499L15.8208 15.0565L17.0864 12.9386L17.3439 12.4972L16.9674 12.169L15.5439 10.958C15.5965 10.6412 15.6617 10.3278 15.6617 9.99506C15.6617 9.66229 15.5965 9.34898 15.5439 9.03221L16.9674 7.82122L17.3439 7.49303L17.0864 7.05156L15.8208 4.93373L15.5633 4.49233L15.069 4.64557L13.229 5.2608C12.7358 4.87429 12.19 4.54835 11.5881 4.31849L11.2127 2.48996L11.1132 1.99023H7.55327Z" stroke="#646464" stroke-width="2.14555" stroke-linecap="square" stroke-linejoin="round"/>
<path fill-rule="evenodd" clip-rule="evenodd" d="M11.622 9.99506C11.622 11.2575 10.5967 12.2822 9.33337 12.2822C8.07007 12.2822 7.04478 11.2575 7.04478 9.99506C7.04478 8.73258 8.07007 7.70801 9.33337 7.70801C10.5967 7.70801 11.622 8.73258 11.622 9.99506Z" stroke="#646464" stroke-width="2.14555" stroke-linecap="square" stroke-linejoin="round"/>
</svg>
