<svg width="18" height="18" viewBox="0 0 18 18" fill="none" xmlns="http://www.w3.org/2000/svg">
      <path d="M9.33337 16.4665L8.43877 17.1623C8.65348 17.4384 8.98363 17.5999 9.33337 17.5999C9.6831 17.5999 10.0132 17.4384 10.228 17.1623L9.33337 16.4665ZM1.8667 6.86654L0.894874 6.28344C0.654066 6.68479 0.684747 7.19288 0.9721 7.56234L1.8667 6.86654ZM5.0667 1.5332V0.39987H4.42502L4.09487 0.950108L5.0667 1.5332ZM13.6 1.5332L14.5719 0.950108L14.2417 0.39987H13.6V1.5332ZM16.8 6.86654L17.6946 7.56234C17.982 7.19288 18.0127 6.68479 17.7719 6.28344L16.8 6.86654ZM10.228 15.7707L2.7613 6.17074L0.9721 7.56234L8.43877 17.1623L10.228 15.7707ZM2.83852 7.44963L6.03852 2.1163L4.09487 0.950108L0.894874 6.28344L2.83852 7.44963ZM5.0667 2.66654H13.6V0.39987H5.0667V2.66654ZM12.6282 2.1163L15.8282 7.44963L17.7719 6.28344L14.5719 0.950108L12.6282 2.1163ZM15.9054 6.17074L8.43877 15.7707L10.228 17.1623L17.6946 7.56234L15.9054 6.17074Z" fill="#999999"/>
      </svg>