<svg width="1323" height="520" viewBox="0 0 1323 520" fill="none" xmlns="http://www.w3.org/2000/svg">
<g filter="url(#filter0_ddddd_0_1)">
<rect x="5" y="3" width="1288" height="471" rx="22" fill="white"/>
<rect x="5.5" y="3.5" width="1287" height="470" rx="21.5" stroke="#D1D1D1"/>
</g>
<g clip-path="url(#clip0_0_1)">
<path d="M687.7 127.547C684.073 109.147 667.913 95.3334 648.5 95.3334C633.087 95.3334 619.7 104.08 613.033 116.88C596.98 118.587 584.5 132.187 584.5 148.667C584.5 166.32 598.847 180.667 616.5 180.667H685.833C700.553 180.667 712.5 168.72 712.5 154C712.5 139.92 701.567 128.507 687.7 127.547ZM685.833 170H616.5C604.713 170 595.167 160.453 595.167 148.667C595.167 137.733 603.327 128.613 614.153 127.493L619.86 126.907L622.527 121.84C627.593 112.08 637.513 106 648.5 106C662.473 106 674.527 115.92 677.247 129.627L678.847 137.627L687.007 138.213C695.327 138.747 701.833 145.733 701.833 154C701.833 162.8 694.633 170 685.833 170ZM627.167 143.333H640.767V159.333H656.233V143.333H669.833L648.5 122L627.167 143.333Z" fill="#7E22CE"/>
</g>
<path d="M178.996 244.55C178.996 244.046 178.917 243.602 178.759 243.217C178.611 242.822 178.345 242.466 177.959 242.15C177.584 241.834 177.061 241.533 176.389 241.247C175.728 240.96 174.889 240.669 173.872 240.373C172.805 240.057 171.843 239.707 170.984 239.321C170.125 238.926 169.389 238.477 168.777 237.974C168.165 237.47 167.696 236.892 167.37 236.241C167.044 235.589 166.881 234.844 166.881 234.004C166.881 233.165 167.054 232.39 167.399 231.679C167.745 230.968 168.239 230.351 168.88 229.828C169.532 229.295 170.307 228.88 171.206 228.584C172.104 228.287 173.106 228.139 174.212 228.139C175.832 228.139 177.204 228.45 178.33 229.072C179.465 229.685 180.329 230.489 180.922 231.487C181.514 232.474 181.81 233.53 181.81 234.656H178.967C178.967 233.846 178.794 233.131 178.448 232.508C178.103 231.877 177.579 231.383 176.878 231.027C176.177 230.662 175.289 230.479 174.212 230.479C173.195 230.479 172.356 230.632 171.694 230.939C171.033 231.245 170.539 231.659 170.213 232.183C169.897 232.706 169.739 233.303 169.739 233.975C169.739 234.429 169.833 234.844 170.021 235.219C170.218 235.584 170.519 235.925 170.924 236.241C171.339 236.557 171.862 236.848 172.494 237.115C173.136 237.381 173.901 237.638 174.79 237.885C176.014 238.23 177.071 238.615 177.959 239.04C178.848 239.465 179.579 239.943 180.151 240.477C180.734 241 181.163 241.597 181.44 242.269C181.726 242.93 181.869 243.681 181.869 244.52C181.869 245.399 181.692 246.194 181.336 246.905C180.981 247.615 180.472 248.223 179.811 248.726C179.149 249.23 178.354 249.62 177.426 249.896C176.508 250.163 175.481 250.296 174.346 250.296C173.348 250.296 172.366 250.158 171.398 249.882C170.44 249.605 169.567 249.19 168.777 248.637C167.997 248.084 167.37 247.403 166.896 246.594C166.432 245.774 166.2 244.826 166.2 243.75H169.043C169.043 244.49 169.187 245.127 169.473 245.66C169.759 246.184 170.149 246.618 170.643 246.964C171.146 247.309 171.714 247.566 172.346 247.734C172.988 247.892 173.654 247.971 174.346 247.971C175.343 247.971 176.187 247.833 176.878 247.556C177.569 247.28 178.093 246.885 178.448 246.371C178.814 245.858 178.996 245.251 178.996 244.55ZM191.748 250.296C190.633 250.296 189.62 250.109 188.712 249.733C187.814 249.348 187.038 248.81 186.387 248.119C185.745 247.428 185.251 246.608 184.906 245.66C184.56 244.713 184.387 243.676 184.387 242.55V241.928C184.387 240.625 184.58 239.465 184.965 238.448C185.35 237.421 185.873 236.552 186.535 235.841C187.196 235.13 187.947 234.592 188.786 234.227C189.625 233.861 190.494 233.679 191.393 233.679C192.538 233.679 193.526 233.876 194.355 234.271C195.194 234.666 195.88 235.219 196.414 235.93C196.947 236.631 197.342 237.46 197.599 238.418C197.855 239.366 197.984 240.403 197.984 241.528V242.758H186.016V240.521H195.244V240.314C195.204 239.603 195.056 238.912 194.799 238.24C194.552 237.569 194.157 237.016 193.614 236.581C193.071 236.147 192.331 235.93 191.393 235.93C190.771 235.93 190.198 236.063 189.675 236.33C189.151 236.586 188.702 236.971 188.327 237.485C187.952 237.998 187.66 238.625 187.453 239.366C187.246 240.106 187.142 240.96 187.142 241.928V242.55C187.142 243.31 187.246 244.026 187.453 244.698C187.67 245.359 187.981 245.942 188.386 246.445C188.801 246.949 189.3 247.344 189.882 247.63C190.475 247.917 191.146 248.06 191.896 248.06C192.864 248.06 193.684 247.862 194.355 247.467C195.026 247.072 195.614 246.544 196.117 245.883L197.776 247.201C197.431 247.724 196.991 248.223 196.458 248.697C195.925 249.171 195.268 249.556 194.488 249.852C193.718 250.148 192.805 250.296 191.748 250.296ZM204.16 227.251V250H201.405V227.251H204.16ZM215.209 250.296C214.093 250.296 213.081 250.109 212.172 249.733C211.274 249.348 210.499 248.81 209.847 248.119C209.205 247.428 208.712 246.608 208.366 245.66C208.02 244.713 207.848 243.676 207.848 242.55V241.928C207.848 240.625 208.04 239.465 208.425 238.448C208.81 237.421 209.334 236.552 209.995 235.841C210.657 235.13 211.407 234.592 212.246 234.227C213.086 233.861 213.955 233.679 214.853 233.679C215.998 233.679 216.986 233.876 217.815 234.271C218.654 234.666 219.341 235.219 219.874 235.93C220.407 236.631 220.802 237.46 221.059 238.418C221.315 239.366 221.444 240.403 221.444 241.528V242.758H209.477V240.521H218.704V240.314C218.664 239.603 218.516 238.912 218.26 238.24C218.013 237.569 217.618 237.016 217.075 236.581C216.532 236.147 215.791 235.93 214.853 235.93C214.231 235.93 213.658 236.063 213.135 236.33C212.612 236.586 212.162 236.971 211.787 237.485C211.412 237.998 211.121 238.625 210.913 239.366C210.706 240.106 210.602 240.96 210.602 241.928V242.55C210.602 243.31 210.706 244.026 210.913 244.698C211.131 245.359 211.442 245.942 211.846 246.445C212.261 246.949 212.76 247.344 213.342 247.63C213.935 247.917 214.606 248.06 215.357 248.06C216.324 248.06 217.144 247.862 217.815 247.467C218.487 247.072 219.074 246.544 219.578 245.883L221.236 247.201C220.891 247.724 220.452 248.223 219.918 248.697C219.385 249.171 218.729 249.556 217.949 249.852C217.178 250.148 216.265 250.296 215.209 250.296ZM231.056 248.045C231.708 248.045 232.31 247.912 232.863 247.645C233.416 247.378 233.87 247.013 234.226 246.549C234.581 246.075 234.783 245.537 234.833 244.935H237.439C237.39 245.883 237.069 246.766 236.477 247.586C235.894 248.395 235.129 249.052 234.181 249.556C233.233 250.049 232.192 250.296 231.056 250.296C229.851 250.296 228.8 250.084 227.901 249.659C227.013 249.235 226.272 248.652 225.68 247.912C225.097 247.171 224.658 246.322 224.362 245.364C224.075 244.397 223.932 243.375 223.932 242.298V241.676C223.932 240.6 224.075 239.583 224.362 238.625C224.658 237.658 225.097 236.804 225.68 236.063C226.272 235.323 227.013 234.74 227.901 234.315C228.8 233.891 229.851 233.679 231.056 233.679C232.31 233.679 233.406 233.935 234.344 234.449C235.282 234.952 236.018 235.643 236.551 236.522C237.094 237.391 237.39 238.378 237.439 239.484H234.833C234.783 238.823 234.596 238.225 234.27 237.692C233.954 237.159 233.52 236.734 232.967 236.419C232.424 236.093 231.787 235.93 231.056 235.93C230.217 235.93 229.511 236.098 228.938 236.433C228.375 236.759 227.926 237.203 227.59 237.766C227.264 238.319 227.028 238.936 226.879 239.618C226.741 240.289 226.672 240.975 226.672 241.676V242.298C226.672 242.999 226.741 243.691 226.879 244.372C227.018 245.053 227.25 245.67 227.576 246.223C227.911 246.776 228.36 247.221 228.923 247.556C229.496 247.882 230.207 248.045 231.056 248.045ZM247.229 233.975V236.078H238.565V233.975H247.229ZM241.498 230.08H244.238V246.031C244.238 246.574 244.322 246.984 244.489 247.26C244.657 247.536 244.874 247.719 245.141 247.808C245.408 247.897 245.694 247.941 246 247.941C246.227 247.941 246.464 247.922 246.711 247.882C246.968 247.833 247.16 247.793 247.289 247.764L247.303 250C247.086 250.069 246.8 250.133 246.444 250.193C246.099 250.262 245.679 250.296 245.186 250.296C244.514 250.296 243.897 250.163 243.334 249.896C242.771 249.63 242.322 249.185 241.986 248.563C241.661 247.931 241.498 247.082 241.498 246.016V230.08ZM267.416 247.26V239.01C267.416 238.378 267.288 237.83 267.031 237.366C266.785 236.892 266.409 236.527 265.906 236.27C265.402 236.014 264.78 235.885 264.04 235.885C263.348 235.885 262.741 236.004 262.218 236.241C261.704 236.478 261.3 236.789 261.003 237.174C260.717 237.559 260.574 237.974 260.574 238.418H257.834C257.834 237.845 257.982 237.278 258.278 236.715C258.574 236.152 258.999 235.643 259.552 235.189C260.115 234.725 260.786 234.36 261.566 234.093C262.356 233.817 263.235 233.679 264.203 233.679C265.368 233.679 266.395 233.876 267.283 234.271C268.182 234.666 268.883 235.263 269.386 236.063C269.9 236.853 270.156 237.845 270.156 239.04V246.505C270.156 247.038 270.201 247.606 270.29 248.208C270.389 248.81 270.532 249.329 270.719 249.763V250H267.861C267.723 249.684 267.614 249.264 267.535 248.741C267.456 248.208 267.416 247.714 267.416 247.26ZM267.89 240.284L267.92 242.21H265.15C264.37 242.21 263.674 242.274 263.062 242.402C262.45 242.521 261.936 242.703 261.522 242.95C261.107 243.197 260.791 243.508 260.574 243.883C260.357 244.248 260.248 244.678 260.248 245.172C260.248 245.675 260.362 246.134 260.589 246.549C260.816 246.964 261.156 247.295 261.611 247.541C262.075 247.778 262.642 247.897 263.314 247.897C264.153 247.897 264.894 247.719 265.536 247.364C266.177 247.008 266.686 246.574 267.061 246.06C267.446 245.547 267.653 245.048 267.683 244.564L268.853 245.883C268.784 246.297 268.596 246.756 268.29 247.26C267.984 247.764 267.574 248.247 267.061 248.711C266.557 249.166 265.955 249.546 265.254 249.852C264.563 250.148 263.783 250.296 262.914 250.296C261.828 250.296 260.875 250.084 260.056 249.659C259.246 249.235 258.614 248.667 258.16 247.956C257.715 247.235 257.493 246.431 257.493 245.542C257.493 244.683 257.661 243.928 257.997 243.276C258.333 242.614 258.816 242.066 259.448 241.632C260.08 241.188 260.84 240.852 261.729 240.625C262.618 240.398 263.61 240.284 264.706 240.284H267.89ZM285.649 250H282.909V232.583C282.909 231.368 283.146 230.341 283.619 229.502C284.093 228.663 284.77 228.026 285.649 227.591C286.527 227.157 287.569 226.94 288.774 226.94C289.485 226.94 290.181 227.028 290.862 227.206C291.543 227.374 292.244 227.586 292.965 227.843L292.506 230.154C292.052 229.976 291.523 229.808 290.921 229.65C290.329 229.482 289.677 229.398 288.966 229.398C287.791 229.398 286.942 229.665 286.419 230.198C285.905 230.721 285.649 231.516 285.649 232.583V250ZM288.922 233.975V236.078H280.376V233.975H288.922ZM294.313 233.975V250H291.573V233.975H294.313ZM301.792 227.251V250H299.037V227.251H301.792ZM312.841 250.296C311.725 250.296 310.713 250.109 309.805 249.733C308.906 249.348 308.131 248.81 307.48 248.119C306.838 247.428 306.344 246.608 305.999 245.66C305.653 244.713 305.48 243.676 305.48 242.55V241.928C305.48 240.625 305.673 239.465 306.058 238.448C306.443 237.421 306.966 236.552 307.628 235.841C308.289 235.13 309.04 234.592 309.879 234.227C310.718 233.861 311.587 233.679 312.486 233.679C313.631 233.679 314.618 233.876 315.448 234.271C316.287 234.666 316.973 235.219 317.507 235.93C318.04 236.631 318.435 237.46 318.691 238.418C318.948 239.366 319.076 240.403 319.076 241.528V242.758H307.109V240.521H316.336V240.314C316.297 239.603 316.149 238.912 315.892 238.24C315.645 237.569 315.25 237.016 314.707 236.581C314.164 236.147 313.424 235.93 312.486 235.93C311.864 235.93 311.291 236.063 310.768 236.33C310.244 236.586 309.795 236.971 309.42 237.485C309.045 237.998 308.753 238.625 308.546 239.366C308.339 240.106 308.235 240.96 308.235 241.928V242.55C308.235 243.31 308.339 244.026 308.546 244.698C308.763 245.359 309.074 245.942 309.479 246.445C309.894 246.949 310.392 247.344 310.975 247.63C311.567 247.917 312.239 248.06 312.989 248.06C313.957 248.06 314.776 247.862 315.448 247.467C316.119 247.072 316.707 246.544 317.21 245.883L318.869 247.201C318.524 247.724 318.084 248.223 317.551 248.697C317.018 249.171 316.361 249.556 315.581 249.852C314.811 250.148 313.898 250.296 312.841 250.296ZM329.074 242.165V241.824C329.074 240.669 329.242 239.598 329.577 238.611C329.913 237.613 330.397 236.749 331.029 236.019C331.661 235.278 332.426 234.705 333.324 234.301C334.223 233.886 335.23 233.679 336.346 233.679C337.471 233.679 338.483 233.886 339.382 234.301C340.29 234.705 341.061 235.278 341.692 236.019C342.334 236.749 342.823 237.613 343.159 238.611C343.494 239.598 343.662 240.669 343.662 241.824V242.165C343.662 243.32 343.494 244.392 343.159 245.379C342.823 246.366 342.334 247.23 341.692 247.971C341.061 248.702 340.295 249.274 339.397 249.689C338.508 250.094 337.501 250.296 336.375 250.296C335.25 250.296 334.238 250.094 333.339 249.689C332.441 249.274 331.671 248.702 331.029 247.971C330.397 247.23 329.913 246.366 329.577 245.379C329.242 244.392 329.074 243.32 329.074 242.165ZM331.814 241.824V242.165C331.814 242.965 331.908 243.72 332.095 244.431C332.283 245.132 332.564 245.754 332.939 246.297C333.324 246.84 333.803 247.27 334.376 247.586C334.949 247.892 335.615 248.045 336.375 248.045C337.126 248.045 337.782 247.892 338.345 247.586C338.918 247.27 339.392 246.84 339.767 246.297C340.142 245.754 340.424 245.132 340.611 244.431C340.809 243.72 340.908 242.965 340.908 242.165V241.824C340.908 241.035 340.809 240.289 340.611 239.588C340.424 238.877 340.137 238.25 339.752 237.707C339.377 237.154 338.903 236.72 338.33 236.404C337.768 236.088 337.106 235.93 336.346 235.93C335.595 235.93 334.934 236.088 334.361 236.404C333.798 236.72 333.324 237.154 332.939 237.707C332.564 238.25 332.283 238.877 332.095 239.588C331.908 240.289 331.814 241.035 331.814 241.824ZM349.838 236.493V250H347.098V233.975H349.764L349.838 236.493ZM354.844 233.886L354.83 236.433C354.603 236.384 354.385 236.354 354.178 236.344C353.98 236.325 353.753 236.315 353.497 236.315C352.865 236.315 352.307 236.414 351.823 236.611C351.339 236.809 350.929 237.085 350.594 237.44C350.258 237.796 349.991 238.221 349.794 238.714C349.606 239.198 349.483 239.731 349.424 240.314L348.654 240.758C348.654 239.79 348.747 238.882 348.935 238.033C349.132 237.184 349.434 236.433 349.838 235.782C350.243 235.12 350.757 234.607 351.379 234.241C352.011 233.866 352.761 233.679 353.63 233.679C353.827 233.679 354.055 233.703 354.311 233.753C354.568 233.792 354.746 233.837 354.844 233.886ZM375.002 246.89V227.251H377.757V250H375.239L375.002 246.89ZM364.22 242.165V241.854C364.22 240.63 364.368 239.519 364.664 238.522C364.97 237.515 365.4 236.651 365.953 235.93C366.515 235.209 367.182 234.656 367.952 234.271C368.732 233.876 369.601 233.679 370.559 233.679C371.566 233.679 372.445 233.856 373.195 234.212C373.955 234.557 374.597 235.066 375.12 235.737C375.654 236.399 376.073 237.199 376.379 238.137C376.685 239.075 376.898 240.136 377.016 241.321V242.683C376.908 243.858 376.695 244.915 376.379 245.853C376.073 246.791 375.654 247.591 375.12 248.252C374.597 248.914 373.955 249.422 373.195 249.778C372.435 250.123 371.546 250.296 370.529 250.296C369.591 250.296 368.732 250.094 367.952 249.689C367.182 249.284 366.515 248.716 365.953 247.986C365.4 247.255 364.97 246.396 364.664 245.409C364.368 244.411 364.22 243.33 364.22 242.165ZM366.974 241.854V242.165C366.974 242.965 367.053 243.715 367.211 244.416C367.379 245.117 367.636 245.734 367.982 246.268C368.327 246.801 368.767 247.221 369.3 247.527C369.833 247.823 370.47 247.971 371.21 247.971C372.119 247.971 372.864 247.778 373.447 247.393C374.039 247.008 374.513 246.5 374.869 245.868C375.224 245.236 375.501 244.55 375.698 243.809V240.24C375.58 239.697 375.407 239.173 375.18 238.67C374.962 238.156 374.676 237.702 374.321 237.307C373.975 236.902 373.546 236.581 373.032 236.344C372.529 236.107 371.931 235.989 371.24 235.989C370.49 235.989 369.843 236.147 369.3 236.463C368.767 236.769 368.327 237.194 367.982 237.737C367.636 238.27 367.379 238.892 367.211 239.603C367.053 240.304 366.974 241.054 366.974 241.854ZM384.762 236.493V250H382.022V233.975H384.688L384.762 236.493ZM389.768 233.886L389.753 236.433C389.526 236.384 389.309 236.354 389.102 236.344C388.904 236.325 388.677 236.315 388.42 236.315C387.789 236.315 387.231 236.414 386.747 236.611C386.263 236.809 385.853 237.085 385.518 237.44C385.182 237.796 384.915 238.221 384.718 238.714C384.53 239.198 384.407 239.731 384.348 240.314L383.577 240.758C383.577 239.79 383.671 238.882 383.859 238.033C384.056 237.184 384.357 236.433 384.762 235.782C385.167 235.12 385.68 234.607 386.303 234.241C386.934 233.866 387.685 233.679 388.554 233.679C388.751 233.679 388.978 233.703 389.235 233.753C389.492 233.792 389.67 233.837 389.768 233.886ZM401.158 247.26V239.01C401.158 238.378 401.029 237.83 400.773 237.366C400.526 236.892 400.151 236.527 399.647 236.27C399.143 236.014 398.521 235.885 397.781 235.885C397.09 235.885 396.482 236.004 395.959 236.241C395.446 236.478 395.041 236.789 394.745 237.174C394.458 237.559 394.315 237.974 394.315 238.418H391.575C391.575 237.845 391.723 237.278 392.019 236.715C392.316 236.152 392.74 235.643 393.293 235.189C393.856 234.725 394.527 234.36 395.307 234.093C396.097 233.817 396.976 233.679 397.944 233.679C399.109 233.679 400.136 233.876 401.024 234.271C401.923 234.666 402.624 235.263 403.128 236.063C403.641 236.853 403.898 237.845 403.898 239.04V246.505C403.898 247.038 403.942 247.606 404.031 248.208C404.13 248.81 404.273 249.329 404.461 249.763V250H401.602C401.464 249.684 401.355 249.264 401.276 248.741C401.197 248.208 401.158 247.714 401.158 247.26ZM401.632 240.284L401.661 242.21H398.892C398.112 242.21 397.416 242.274 396.803 242.402C396.191 242.521 395.678 242.703 395.263 242.95C394.848 243.197 394.532 243.508 394.315 243.883C394.098 244.248 393.989 244.678 393.989 245.172C393.989 245.675 394.103 246.134 394.33 246.549C394.557 246.964 394.898 247.295 395.352 247.541C395.816 247.778 396.384 247.897 397.055 247.897C397.894 247.897 398.635 247.719 399.277 247.364C399.919 247.008 400.427 246.574 400.802 246.06C401.187 245.547 401.395 245.048 401.424 244.564L402.594 245.883C402.525 246.297 402.338 246.756 402.032 247.26C401.725 247.764 401.316 248.247 400.802 248.711C400.299 249.166 399.696 249.546 398.995 249.852C398.304 250.148 397.524 250.296 396.655 250.296C395.569 250.296 394.616 250.084 393.797 249.659C392.987 249.235 392.355 248.667 391.901 247.956C391.457 247.235 391.235 246.431 391.235 245.542C391.235 244.683 391.402 243.928 391.738 243.276C392.074 242.614 392.558 242.066 393.19 241.632C393.821 241.188 394.582 240.852 395.47 240.625C396.359 240.398 397.351 240.284 398.447 240.284H401.632ZM418.59 233.975H421.078V249.659C421.078 251.071 420.792 252.276 420.219 253.273C419.647 254.27 418.847 255.026 417.82 255.539C416.803 256.063 415.628 256.324 414.295 256.324C413.742 256.324 413.09 256.235 412.34 256.058C411.599 255.89 410.869 255.598 410.148 255.184C409.437 254.779 408.84 254.231 408.356 253.54L409.792 251.911C410.464 252.72 411.165 253.283 411.896 253.599C412.636 253.915 413.367 254.073 414.088 254.073C414.956 254.073 415.707 253.91 416.339 253.584C416.971 253.258 417.459 252.775 417.805 252.133C418.161 251.501 418.338 250.721 418.338 249.793V237.5L418.59 233.975ZM407.556 242.165V241.854C407.556 240.63 407.699 239.519 407.986 238.522C408.282 237.515 408.701 236.651 409.244 235.93C409.797 235.209 410.464 234.656 411.244 234.271C412.024 233.876 412.903 233.679 413.88 233.679C414.887 233.679 415.766 233.856 416.517 234.212C417.277 234.557 417.919 235.066 418.442 235.737C418.975 236.399 419.395 237.199 419.701 238.137C420.007 239.075 420.219 240.136 420.338 241.321V242.683C420.229 243.858 420.017 244.915 419.701 245.853C419.395 246.791 418.975 247.591 418.442 248.252C417.919 248.914 417.277 249.422 416.517 249.778C415.756 250.123 414.868 250.296 413.851 250.296C412.893 250.296 412.024 250.094 411.244 249.689C410.474 249.284 409.812 248.716 409.259 247.986C408.706 247.255 408.282 246.396 407.986 245.409C407.699 244.411 407.556 243.33 407.556 242.165ZM410.296 241.854V242.165C410.296 242.965 410.375 243.715 410.533 244.416C410.701 245.117 410.953 245.734 411.288 246.268C411.634 246.801 412.073 247.221 412.606 247.527C413.14 247.823 413.777 247.971 414.517 247.971C415.425 247.971 416.176 247.778 416.768 247.393C417.361 247.008 417.83 246.5 418.175 245.868C418.531 245.236 418.807 244.55 419.005 243.809V240.24C418.896 239.697 418.728 239.173 418.501 238.67C418.284 238.156 417.998 237.702 417.642 237.307C417.297 236.902 416.867 236.581 416.354 236.344C415.84 236.107 415.238 235.989 414.547 235.989C413.796 235.989 413.15 236.147 412.606 236.463C412.073 236.769 411.634 237.194 411.288 237.737C410.953 238.27 410.701 238.892 410.533 239.603C410.375 240.304 410.296 241.054 410.296 241.854ZM442.213 247.26V239.01C442.213 238.378 442.085 237.83 441.828 237.366C441.581 236.892 441.206 236.527 440.702 236.27C440.199 236.014 439.577 235.885 438.836 235.885C438.145 235.885 437.538 236.004 437.015 236.241C436.501 236.478 436.096 236.789 435.8 237.174C435.514 237.559 435.371 237.974 435.371 238.418H432.631C432.631 237.845 432.779 237.278 433.075 236.715C433.371 236.152 433.796 235.643 434.349 235.189C434.911 234.725 435.583 234.36 436.363 234.093C437.153 233.817 438.032 233.679 438.999 233.679C440.164 233.679 441.191 233.876 442.08 234.271C442.978 234.666 443.679 235.263 444.183 236.063C444.696 236.853 444.953 237.845 444.953 239.04V246.505C444.953 247.038 444.998 247.606 445.086 248.208C445.185 248.81 445.328 249.329 445.516 249.763V250H442.658C442.519 249.684 442.411 249.264 442.332 248.741C442.253 248.208 442.213 247.714 442.213 247.26ZM442.687 240.284L442.717 242.21H439.947C439.167 242.21 438.471 242.274 437.859 242.402C437.247 242.521 436.733 242.703 436.319 242.95C435.904 243.197 435.588 243.508 435.371 243.883C435.153 244.248 435.045 244.678 435.045 245.172C435.045 245.675 435.158 246.134 435.385 246.549C435.613 246.964 435.953 247.295 436.407 247.541C436.871 247.778 437.439 247.897 438.111 247.897C438.95 247.897 439.69 247.719 440.332 247.364C440.974 247.008 441.483 246.574 441.858 246.06C442.243 245.547 442.45 245.048 442.48 244.564L443.65 245.883C443.581 246.297 443.393 246.756 443.087 247.26C442.781 247.764 442.371 248.247 441.858 248.711C441.354 249.166 440.752 249.546 440.051 249.852C439.36 250.148 438.58 250.296 437.711 250.296C436.625 250.296 435.672 250.084 434.852 249.659C434.043 249.235 433.411 248.667 432.956 247.956C432.512 247.235 432.29 246.431 432.29 245.542C432.29 244.683 432.458 243.928 432.794 243.276C433.129 242.614 433.613 242.066 434.245 241.632C434.877 241.188 435.637 240.852 436.526 240.625C437.414 240.398 438.407 240.284 439.503 240.284H442.687ZM452.003 237.396V250H449.263V233.975H451.855L452.003 237.396ZM451.351 241.38L450.211 241.336C450.221 240.24 450.384 239.228 450.7 238.299C451.016 237.361 451.46 236.547 452.033 235.856C452.605 235.165 453.287 234.631 454.077 234.256C454.876 233.871 455.76 233.679 456.728 233.679C457.518 233.679 458.229 233.787 458.861 234.004C459.492 234.212 460.031 234.547 460.475 235.012C460.929 235.476 461.275 236.078 461.512 236.818C461.749 237.549 461.867 238.443 461.867 239.499V250H459.112V239.47C459.112 238.63 458.989 237.959 458.742 237.455C458.495 236.942 458.135 236.572 457.661 236.344C457.187 236.107 456.604 235.989 455.913 235.989C455.232 235.989 454.61 236.132 454.047 236.419C453.494 236.705 453.015 237.1 452.61 237.603C452.215 238.107 451.904 238.685 451.677 239.336C451.46 239.978 451.351 240.659 451.351 241.38ZM476.13 246.89V227.251H478.885V250H476.367L476.13 246.89ZM465.348 242.165V241.854C465.348 240.63 465.496 239.519 465.792 238.522C466.098 237.515 466.528 236.651 467.08 235.93C467.643 235.209 468.31 234.656 469.08 234.271C469.86 233.876 470.729 233.679 471.687 233.679C472.694 233.679 473.573 233.856 474.323 234.212C475.083 234.557 475.725 235.066 476.248 235.737C476.782 236.399 477.201 237.199 477.507 238.137C477.813 239.075 478.026 240.136 478.144 241.321V242.683C478.036 243.858 477.823 244.915 477.507 245.853C477.201 246.791 476.782 247.591 476.248 248.252C475.725 248.914 475.083 249.422 474.323 249.778C473.563 250.123 472.674 250.296 471.657 250.296C470.719 250.296 469.86 250.094 469.08 249.689C468.31 249.284 467.643 248.716 467.08 247.986C466.528 247.255 466.098 246.396 465.792 245.409C465.496 244.411 465.348 243.33 465.348 242.165ZM468.102 241.854V242.165C468.102 242.965 468.181 243.715 468.339 244.416C468.507 245.117 468.764 245.734 469.11 246.268C469.455 246.801 469.895 247.221 470.428 247.527C470.961 247.823 471.598 247.971 472.338 247.971C473.247 247.971 473.992 247.778 474.575 247.393C475.167 247.008 475.641 246.5 475.997 245.868C476.352 245.236 476.629 244.55 476.826 243.809V240.24C476.707 239.697 476.535 239.173 476.308 238.67C476.09 238.156 475.804 237.702 475.449 237.307C475.103 236.902 474.673 236.581 474.16 236.344C473.656 236.107 473.059 235.989 472.368 235.989C471.618 235.989 470.971 236.147 470.428 236.463C469.895 236.769 469.455 237.194 469.11 237.737C468.764 238.27 468.507 238.892 468.339 239.603C468.181 240.304 468.102 241.054 468.102 241.854ZM500.775 246.89V227.251H503.53V250H501.012L500.775 246.89ZM489.993 242.165V241.854C489.993 240.63 490.141 239.519 490.437 238.522C490.743 237.515 491.173 236.651 491.726 235.93C492.288 235.209 492.955 234.656 493.725 234.271C494.505 233.876 495.374 233.679 496.332 233.679C497.339 233.679 498.218 233.856 498.968 234.212C499.728 234.557 500.37 235.066 500.893 235.737C501.427 236.399 501.846 237.199 502.152 238.137C502.458 239.075 502.671 240.136 502.789 241.321V242.683C502.681 243.858 502.468 244.915 502.152 245.853C501.846 246.791 501.427 247.591 500.893 248.252C500.37 248.914 499.728 249.422 498.968 249.778C498.208 250.123 497.319 250.296 496.302 250.296C495.364 250.296 494.505 250.094 493.725 249.689C492.955 249.284 492.288 248.716 491.726 247.986C491.173 247.255 490.743 246.396 490.437 245.409C490.141 244.411 489.993 243.33 489.993 242.165ZM492.748 241.854V242.165C492.748 242.965 492.827 243.715 492.985 244.416C493.152 245.117 493.409 245.734 493.755 246.268C494.1 246.801 494.54 247.221 495.073 247.527C495.606 247.823 496.243 247.971 496.983 247.971C497.892 247.971 498.637 247.778 499.22 247.393C499.812 247.008 500.286 246.5 500.642 245.868C500.997 245.236 501.274 244.55 501.471 243.809V240.24C501.353 239.697 501.18 239.173 500.953 238.67C500.735 238.156 500.449 237.702 500.094 237.307C499.748 236.902 499.319 236.581 498.805 236.344C498.302 236.107 497.704 235.989 497.013 235.989C496.263 235.989 495.616 236.147 495.073 236.463C494.54 236.769 494.1 237.194 493.755 237.737C493.409 238.27 493.152 238.892 492.985 239.603C492.827 240.304 492.748 241.054 492.748 241.854ZM510.535 236.493V250H507.795V233.975H510.461L510.535 236.493ZM515.541 233.886L515.527 236.433C515.299 236.384 515.082 236.354 514.875 236.344C514.677 236.325 514.45 236.315 514.194 236.315C513.562 236.315 513.004 236.414 512.52 236.611C512.036 236.809 511.626 237.085 511.291 237.44C510.955 237.796 510.688 238.221 510.491 238.714C510.303 239.198 510.18 239.731 510.121 240.314L509.35 240.758C509.35 239.79 509.444 238.882 509.632 238.033C509.829 237.184 510.13 236.433 510.535 235.782C510.94 235.12 511.454 234.607 512.076 234.241C512.708 233.866 513.458 233.679 514.327 233.679C514.524 233.679 514.751 233.703 515.008 233.753C515.265 233.792 515.443 233.837 515.541 233.886ZM517.052 242.165V241.824C517.052 240.669 517.22 239.598 517.556 238.611C517.891 237.613 518.375 236.749 519.007 236.019C519.639 235.278 520.404 234.705 521.303 234.301C522.201 233.886 523.208 233.679 524.324 233.679C525.45 233.679 526.462 233.886 527.36 234.301C528.269 234.705 529.039 235.278 529.671 236.019C530.313 236.749 530.801 237.613 531.137 238.611C531.473 239.598 531.641 240.669 531.641 241.824V242.165C531.641 243.32 531.473 244.392 531.137 245.379C530.801 246.366 530.313 247.23 529.671 247.971C529.039 248.702 528.274 249.274 527.375 249.689C526.486 250.094 525.479 250.296 524.354 250.296C523.228 250.296 522.216 250.094 521.318 249.689C520.419 249.274 519.649 248.702 519.007 247.971C518.375 247.23 517.891 246.366 517.556 245.379C517.22 244.392 517.052 243.32 517.052 242.165ZM519.792 241.824V242.165C519.792 242.965 519.886 243.72 520.073 244.431C520.261 245.132 520.542 245.754 520.918 246.297C521.303 246.84 521.782 247.27 522.354 247.586C522.927 247.892 523.593 248.045 524.354 248.045C525.104 248.045 525.761 247.892 526.324 247.586C526.896 247.27 527.37 246.84 527.745 246.297C528.121 245.754 528.402 245.132 528.59 244.431C528.787 243.72 528.886 242.965 528.886 242.165V241.824C528.886 241.035 528.787 240.289 528.59 239.588C528.402 238.877 528.116 238.25 527.731 237.707C527.355 237.154 526.881 236.72 526.309 236.404C525.746 236.088 525.084 235.93 524.324 235.93C523.574 235.93 522.912 236.088 522.339 236.404C521.777 236.72 521.303 237.154 520.918 237.707C520.542 238.25 520.261 238.877 520.073 239.588C519.886 240.289 519.792 241.035 519.792 241.824ZM537.817 237.055V256.161H535.062V233.975H537.58L537.817 237.055ZM548.614 241.854V242.165C548.614 243.33 548.476 244.411 548.199 245.409C547.923 246.396 547.518 247.255 546.985 247.986C546.461 248.716 545.815 249.284 545.044 249.689C544.274 250.094 543.391 250.296 542.393 250.296C541.376 250.296 540.478 250.128 539.698 249.793C538.918 249.457 538.256 248.968 537.713 248.326C537.17 247.685 536.736 246.914 536.41 246.016C536.094 245.117 535.877 244.105 535.758 242.98V241.321C535.877 240.136 536.099 239.075 536.425 238.137C536.75 237.199 537.18 236.399 537.713 235.737C538.256 235.066 538.913 234.557 539.683 234.212C540.453 233.856 541.342 233.679 542.349 233.679C543.356 233.679 544.25 233.876 545.03 234.271C545.81 234.656 546.466 235.209 546.999 235.93C547.533 236.651 547.932 237.515 548.199 238.522C548.476 239.519 548.614 240.63 548.614 241.854ZM545.859 242.165V241.854C545.859 241.054 545.775 240.304 545.607 239.603C545.439 238.892 545.178 238.27 544.822 237.737C544.477 237.194 544.032 236.769 543.489 236.463C542.946 236.147 542.299 235.989 541.549 235.989C540.858 235.989 540.256 236.107 539.742 236.344C539.239 236.581 538.809 236.902 538.454 237.307C538.098 237.702 537.807 238.156 537.58 238.67C537.363 239.173 537.2 239.697 537.091 240.24V244.076C537.288 244.767 537.565 245.419 537.92 246.031C538.276 246.633 538.75 247.122 539.342 247.497C539.935 247.862 540.68 248.045 541.579 248.045C542.319 248.045 542.956 247.892 543.489 247.586C544.032 247.27 544.477 246.84 544.822 246.297C545.178 245.754 545.439 245.132 545.607 244.431C545.775 243.72 545.859 242.965 545.859 242.165ZM562.373 227.251V250H559.633V227.251H562.373ZM561.721 241.38L560.581 241.336C560.591 240.24 560.754 239.228 561.07 238.299C561.386 237.361 561.83 236.547 562.403 235.856C562.975 235.165 563.657 234.631 564.446 234.256C565.246 233.871 566.13 233.679 567.098 233.679C567.888 233.679 568.598 233.787 569.23 234.004C569.862 234.212 570.4 234.547 570.845 235.012C571.299 235.476 571.645 236.078 571.882 236.818C572.118 237.549 572.237 238.443 572.237 239.499V250H569.482V239.47C569.482 238.63 569.359 237.959 569.112 237.455C568.865 236.942 568.505 236.572 568.031 236.344C567.557 236.107 566.974 235.989 566.283 235.989C565.602 235.989 564.98 236.132 564.417 236.419C563.864 236.705 563.385 237.1 562.98 237.603C562.585 238.107 562.274 238.685 562.047 239.336C561.83 239.978 561.721 240.659 561.721 241.38ZM582.99 250.296C581.874 250.296 580.862 250.109 579.953 249.733C579.055 249.348 578.28 248.81 577.628 248.119C576.986 247.428 576.493 246.608 576.147 245.66C575.801 244.713 575.629 243.676 575.629 242.55V241.928C575.629 240.625 575.821 239.465 576.206 238.448C576.591 237.421 577.115 236.552 577.776 235.841C578.438 235.13 579.188 234.592 580.027 234.227C580.867 233.861 581.736 233.679 582.634 233.679C583.779 233.679 584.767 233.876 585.596 234.271C586.436 234.666 587.122 235.219 587.655 235.93C588.188 236.631 588.583 237.46 588.84 238.418C589.097 239.366 589.225 240.403 589.225 241.528V242.758H577.258V240.521H586.485V240.314C586.445 239.603 586.297 238.912 586.041 238.24C585.794 237.569 585.399 237.016 584.856 236.581C584.313 236.147 583.572 235.93 582.634 235.93C582.012 235.93 581.439 236.063 580.916 236.33C580.393 236.586 579.943 236.971 579.568 237.485C579.193 237.998 578.902 238.625 578.694 239.366C578.487 240.106 578.383 240.96 578.383 241.928V242.55C578.383 243.31 578.487 244.026 578.694 244.698C578.912 245.359 579.223 245.942 579.628 246.445C580.042 246.949 580.541 247.344 581.123 247.63C581.716 247.917 582.387 248.06 583.138 248.06C584.105 248.06 584.925 247.862 585.596 247.467C586.268 247.072 586.855 246.544 587.359 245.883L589.018 247.201C588.672 247.724 588.233 248.223 587.699 248.697C587.166 249.171 586.51 249.556 585.73 249.852C584.959 250.148 584.046 250.296 582.99 250.296ZM595.164 236.493V250H592.424V233.975H595.09L595.164 236.493ZM600.17 233.886L600.155 236.433C599.928 236.384 599.711 236.354 599.504 236.344C599.306 236.325 599.079 236.315 598.822 236.315C598.19 236.315 597.632 236.414 597.149 236.611C596.665 236.809 596.255 237.085 595.919 237.44C595.584 237.796 595.317 238.221 595.12 238.714C594.932 239.198 594.809 239.731 594.749 240.314L593.979 240.758C593.979 239.79 594.073 238.882 594.261 238.033C594.458 237.184 594.759 236.433 595.164 235.782C595.569 235.12 596.082 234.607 596.704 234.241C597.336 233.866 598.087 233.679 598.956 233.679C599.153 233.679 599.38 233.703 599.637 233.753C599.894 233.792 600.071 233.837 600.17 233.886ZM609.057 250.296C607.941 250.296 606.929 250.109 606.02 249.733C605.122 249.348 604.347 248.81 603.695 248.119C603.053 247.428 602.56 246.608 602.214 245.66C601.868 244.713 601.696 243.676 601.696 242.55V241.928C601.696 240.625 601.888 239.465 602.273 238.448C602.658 237.421 603.182 236.552 603.843 235.841C604.505 235.13 605.255 234.592 606.094 234.227C606.934 233.861 607.803 233.679 608.701 233.679C609.846 233.679 610.834 233.876 611.663 234.271C612.503 234.666 613.189 235.219 613.722 235.93C614.255 236.631 614.65 237.46 614.907 238.418C615.164 239.366 615.292 240.403 615.292 241.528V242.758H603.325V240.521H612.552V240.314C612.512 239.603 612.364 238.912 612.108 238.24C611.861 237.569 611.466 237.016 610.923 236.581C610.38 236.147 609.639 235.93 608.701 235.93C608.079 235.93 607.506 236.063 606.983 236.33C606.46 236.586 606.01 236.971 605.635 237.485C605.26 237.998 604.969 238.625 604.761 239.366C604.554 240.106 604.45 240.96 604.45 241.928V242.55C604.45 243.31 604.554 244.026 604.761 244.698C604.979 245.359 605.29 245.942 605.694 246.445C606.109 246.949 606.608 247.344 607.19 247.63C607.783 247.917 608.454 248.06 609.205 248.06C610.172 248.06 610.992 247.862 611.663 247.467C612.335 247.072 612.922 246.544 613.426 245.883L615.085 247.201C614.739 247.724 614.3 248.223 613.766 248.697C613.233 249.171 612.577 249.556 611.797 249.852C611.026 250.148 610.113 250.296 609.057 250.296ZM625.911 241.38V241.232C625.911 239.08 626.153 237.134 626.637 235.397C627.121 233.649 627.738 232.118 628.488 230.805C629.239 229.492 630.029 228.406 630.858 227.547C631.687 226.678 632.453 226.051 633.154 225.666L633.731 227.473C633.149 227.917 632.556 228.529 631.954 229.309C631.362 230.089 630.814 231.047 630.31 232.183C629.816 233.318 629.416 234.636 629.11 236.137C628.804 237.638 628.651 239.326 628.651 241.202V241.41C628.651 243.286 628.804 244.979 629.11 246.49C629.416 247.991 629.816 249.314 630.31 250.459C630.814 251.605 631.362 252.577 631.954 253.377C632.556 254.187 633.149 254.828 633.731 255.302L633.154 256.961C632.453 256.576 631.687 255.949 630.858 255.08C630.029 254.221 629.239 253.135 628.488 251.822C627.738 250.518 627.121 248.993 626.637 247.245C626.153 245.498 625.911 243.543 625.911 241.38ZM644.78 241.543H639.019V239.218H644.78C645.896 239.218 646.799 239.04 647.49 238.685C648.182 238.329 648.685 237.835 649.001 237.203C649.327 236.572 649.49 235.851 649.49 235.041C649.49 234.301 649.327 233.604 649.001 232.953C648.685 232.301 648.182 231.778 647.49 231.383C646.799 230.978 645.896 230.776 644.78 230.776H639.685V250H636.827V228.436H644.78C646.409 228.436 647.787 228.717 648.912 229.28C650.038 229.843 650.892 230.623 651.475 231.62C652.057 232.607 652.348 233.738 652.348 235.012C652.348 236.394 652.057 237.574 651.475 238.551C650.892 239.529 650.038 240.274 648.912 240.788C647.787 241.291 646.409 241.543 644.78 241.543ZM654.614 242.165V241.824C654.614 240.669 654.782 239.598 655.118 238.611C655.454 237.613 655.938 236.749 656.569 236.019C657.201 235.278 657.967 234.705 658.865 234.301C659.764 233.886 660.771 233.679 661.887 233.679C663.012 233.679 664.024 233.886 664.923 234.301C665.831 234.705 666.601 235.278 667.233 236.019C667.875 236.749 668.364 237.613 668.699 238.611C669.035 239.598 669.203 240.669 669.203 241.824V242.165C669.203 243.32 669.035 244.392 668.699 245.379C668.364 246.366 667.875 247.23 667.233 247.971C666.601 248.702 665.836 249.274 664.938 249.689C664.049 250.094 663.042 250.296 661.916 250.296C660.791 250.296 659.778 250.094 658.88 249.689C657.981 249.274 657.211 248.702 656.569 247.971C655.938 247.23 655.454 246.366 655.118 245.379C654.782 244.392 654.614 243.32 654.614 242.165ZM657.354 241.824V242.165C657.354 242.965 657.448 243.72 657.636 244.431C657.823 245.132 658.105 245.754 658.48 246.297C658.865 246.84 659.344 247.27 659.917 247.586C660.489 247.892 661.156 248.045 661.916 248.045C662.667 248.045 663.323 247.892 663.886 247.586C664.459 247.27 664.933 246.84 665.308 246.297C665.683 245.754 665.964 245.132 666.152 244.431C666.35 243.72 666.448 242.965 666.448 242.165V241.824C666.448 241.035 666.35 240.289 666.152 239.588C665.964 238.877 665.678 238.25 665.293 237.707C664.918 237.154 664.444 236.72 663.871 236.404C663.308 236.088 662.647 235.93 661.887 235.93C661.136 235.93 660.475 236.088 659.902 236.404C659.339 236.72 658.865 237.154 658.48 237.707C658.105 238.25 657.823 238.877 657.636 239.588C657.448 240.289 657.354 241.035 657.354 241.824ZM682.74 246.89V227.251H685.495V250H682.977L682.74 246.89ZM671.958 242.165V241.854C671.958 240.63 672.106 239.519 672.402 238.522C672.708 237.515 673.138 236.651 673.691 235.93C674.254 235.209 674.92 234.656 675.69 234.271C676.47 233.876 677.339 233.679 678.297 233.679C679.304 233.679 680.183 233.856 680.933 234.212C681.693 234.557 682.335 235.066 682.859 235.737C683.392 236.399 683.811 237.199 684.118 238.137C684.424 239.075 684.636 240.136 684.754 241.321V242.683C684.646 243.858 684.433 244.915 684.118 245.853C683.811 246.791 683.392 247.591 682.859 248.252C682.335 248.914 681.693 249.422 680.933 249.778C680.173 250.123 679.284 250.296 678.267 250.296C677.329 250.296 676.47 250.094 675.69 249.689C674.92 249.284 674.254 248.716 673.691 247.986C673.138 247.255 672.708 246.396 672.402 245.409C672.106 244.411 671.958 243.33 671.958 242.165ZM674.713 241.854V242.165C674.713 242.965 674.792 243.715 674.95 244.416C675.117 245.117 675.374 245.734 675.72 246.268C676.065 246.801 676.505 247.221 677.038 247.527C677.571 247.823 678.208 247.971 678.949 247.971C679.857 247.971 680.602 247.778 681.185 247.393C681.777 247.008 682.251 246.5 682.607 245.868C682.962 245.236 683.239 244.55 683.436 243.809V240.24C683.318 239.697 683.145 239.173 682.918 238.67C682.701 238.156 682.414 237.702 682.059 237.307C681.713 236.902 681.284 236.581 680.77 236.344C680.267 236.107 679.669 235.989 678.978 235.989C678.228 235.989 677.581 236.147 677.038 236.463C676.505 236.769 676.065 237.194 675.72 237.737C675.374 238.27 675.117 238.892 674.95 239.603C674.792 240.304 674.713 241.054 674.713 241.854ZM696.174 248.045C696.825 248.045 697.427 247.912 697.98 247.645C698.533 247.378 698.988 247.013 699.343 246.549C699.698 246.075 699.901 245.537 699.95 244.935H702.557C702.508 245.883 702.187 246.766 701.594 247.586C701.012 248.395 700.246 249.052 699.299 249.556C698.351 250.049 697.309 250.296 696.174 250.296C694.969 250.296 693.917 250.084 693.019 249.659C692.13 249.235 691.39 248.652 690.797 247.912C690.215 247.171 689.775 246.322 689.479 245.364C689.193 244.397 689.05 243.375 689.05 242.298V241.676C689.05 240.6 689.193 239.583 689.479 238.625C689.775 237.658 690.215 236.804 690.797 236.063C691.39 235.323 692.13 234.74 693.019 234.315C693.917 233.891 694.969 233.679 696.174 233.679C697.427 233.679 698.523 233.935 699.461 234.449C700.4 234.952 701.135 235.643 701.668 236.522C702.211 237.391 702.508 238.378 702.557 239.484H699.95C699.901 238.823 699.713 238.225 699.387 237.692C699.071 237.159 698.637 236.734 698.084 236.419C697.541 236.093 696.904 235.93 696.174 235.93C695.334 235.93 694.628 236.098 694.056 236.433C693.493 236.759 693.043 237.203 692.708 237.766C692.382 238.319 692.145 238.936 691.997 239.618C691.859 240.289 691.79 240.975 691.79 241.676V242.298C691.79 242.999 691.859 243.691 691.997 244.372C692.135 245.053 692.367 245.67 692.693 246.223C693.029 246.776 693.478 247.221 694.041 247.556C694.613 247.882 695.324 248.045 696.174 248.045ZM715.087 247.26V239.01C715.087 238.378 714.958 237.83 714.702 237.366C714.455 236.892 714.08 236.527 713.576 236.27C713.073 236.014 712.451 235.885 711.71 235.885C711.019 235.885 710.412 236.004 709.888 236.241C709.375 236.478 708.97 236.789 708.674 237.174C708.387 237.559 708.244 237.974 708.244 238.418H705.504C705.504 237.845 705.652 237.278 705.949 236.715C706.245 236.152 706.669 235.643 707.222 235.189C707.785 234.725 708.457 234.36 709.237 234.093C710.026 233.817 710.905 233.679 711.873 233.679C713.038 233.679 714.065 233.876 714.954 234.271C715.852 234.666 716.553 235.263 717.057 236.063C717.57 236.853 717.827 237.845 717.827 239.04V246.505C717.827 247.038 717.871 247.606 717.96 248.208C718.059 248.81 718.202 249.329 718.39 249.763V250H715.531C715.393 249.684 715.284 249.264 715.205 248.741C715.126 248.208 715.087 247.714 715.087 247.26ZM715.561 240.284L715.59 242.21H712.821C712.041 242.21 711.345 242.274 710.732 242.402C710.12 242.521 709.607 242.703 709.192 242.95C708.777 243.197 708.461 243.508 708.244 243.883C708.027 244.248 707.918 244.678 707.918 245.172C707.918 245.675 708.032 246.134 708.259 246.549C708.486 246.964 708.827 247.295 709.281 247.541C709.745 247.778 710.313 247.897 710.984 247.897C711.824 247.897 712.564 247.719 713.206 247.364C713.848 247.008 714.356 246.574 714.731 246.06C715.116 245.547 715.324 245.048 715.353 244.564L716.523 245.883C716.454 246.297 716.267 246.756 715.961 247.26C715.655 247.764 715.245 248.247 714.731 248.711C714.228 249.166 713.626 249.546 712.924 249.852C712.233 250.148 711.453 250.296 710.584 250.296C709.498 250.296 708.545 250.084 707.726 249.659C706.916 249.235 706.284 248.667 705.83 247.956C705.386 247.235 705.164 246.431 705.164 245.542C705.164 244.683 705.331 243.928 705.667 243.276C706.003 242.614 706.487 242.066 707.119 241.632C707.751 241.188 708.511 240.852 709.4 240.625C710.288 240.398 711.28 240.284 712.376 240.284H715.561ZM731.468 245.749C731.468 245.354 731.379 244.989 731.201 244.653C731.033 244.308 730.683 243.997 730.149 243.72C729.626 243.434 728.836 243.187 727.78 242.98C726.891 242.792 726.086 242.57 725.366 242.313C724.655 242.056 724.047 241.745 723.544 241.38C723.05 241.015 722.67 240.585 722.403 240.092C722.137 239.598 722.003 239.02 722.003 238.359C722.003 237.727 722.142 237.129 722.418 236.567C722.705 236.004 723.104 235.505 723.618 235.071C724.141 234.636 724.768 234.296 725.499 234.049C726.229 233.802 727.044 233.679 727.943 233.679C729.226 233.679 730.322 233.906 731.231 234.36C732.139 234.814 732.835 235.421 733.319 236.182C733.803 236.932 734.045 237.766 734.045 238.685H731.305C731.305 238.24 731.171 237.811 730.905 237.396C730.648 236.971 730.268 236.621 729.764 236.344C729.271 236.068 728.663 235.93 727.943 235.93C727.182 235.93 726.565 236.048 726.091 236.285C725.627 236.512 725.287 236.804 725.069 237.159C724.862 237.515 724.758 237.89 724.758 238.285C724.758 238.581 724.808 238.847 724.906 239.084C725.015 239.312 725.203 239.524 725.469 239.721C725.736 239.909 726.111 240.087 726.595 240.255C727.079 240.422 727.696 240.59 728.446 240.758C729.759 241.054 730.841 241.41 731.69 241.824C732.539 242.239 733.171 242.748 733.586 243.35C734 243.952 734.208 244.683 734.208 245.542C734.208 246.243 734.059 246.885 733.763 247.467C733.477 248.05 733.057 248.553 732.504 248.978C731.961 249.393 731.31 249.719 730.549 249.956C729.799 250.183 728.955 250.296 728.017 250.296C726.605 250.296 725.41 250.044 724.432 249.541C723.455 249.037 722.714 248.386 722.211 247.586C721.707 246.786 721.455 245.942 721.455 245.053H724.21C724.25 245.804 724.467 246.401 724.862 246.845C725.257 247.28 725.741 247.591 726.313 247.778C726.886 247.956 727.454 248.045 728.017 248.045C728.767 248.045 729.394 247.946 729.898 247.749C730.411 247.551 730.801 247.28 731.068 246.934C731.334 246.589 731.468 246.194 731.468 245.749ZM744.516 233.975V236.078H735.852V233.975H744.516ZM738.784 230.08H741.524V246.031C741.524 246.574 741.608 246.984 741.776 247.26C741.944 247.536 742.161 247.719 742.428 247.808C742.694 247.897 742.98 247.941 743.287 247.941C743.514 247.941 743.751 247.922 743.997 247.882C744.254 247.833 744.447 247.793 744.575 247.764L744.59 250C744.373 250.069 744.086 250.133 743.731 250.193C743.385 250.262 742.966 250.296 742.472 250.296C741.801 250.296 741.183 250.163 740.621 249.896C740.058 249.63 739.609 249.185 739.273 248.563C738.947 247.931 738.784 247.082 738.784 246.016V230.08ZM756.572 228.436H759.341L766.406 246.016L773.456 228.436H776.241L767.473 250H765.31L756.572 228.436ZM755.668 228.436H758.112L758.512 241.587V250H755.668V228.436ZM774.685 228.436H777.129V250H774.286V241.587L774.685 228.436ZM788.385 250.296C787.27 250.296 786.258 250.109 785.349 249.733C784.451 249.348 783.676 248.81 783.024 248.119C782.382 247.428 781.888 246.608 781.543 245.66C781.197 244.713 781.024 243.676 781.024 242.55V241.928C781.024 240.625 781.217 239.465 781.602 238.448C781.987 237.421 782.51 236.552 783.172 235.841C783.833 235.13 784.584 234.592 785.423 234.227C786.262 233.861 787.131 233.679 788.03 233.679C789.175 233.679 790.163 233.876 790.992 234.271C791.831 234.666 792.518 235.219 793.051 235.93C793.584 236.631 793.979 237.46 794.236 238.418C794.492 239.366 794.621 240.403 794.621 241.528V242.758H782.654V240.521H791.881V240.314C791.841 239.603 791.693 238.912 791.436 238.24C791.189 237.569 790.795 237.016 790.251 236.581C789.708 236.147 788.968 235.93 788.03 235.93C787.408 235.93 786.835 236.063 786.312 236.33C785.789 236.586 785.339 236.971 784.964 237.485C784.589 237.998 784.298 238.625 784.09 239.366C783.883 240.106 783.779 240.96 783.779 241.928V242.55C783.779 243.31 783.883 244.026 784.09 244.698C784.307 245.359 784.618 245.942 785.023 246.445C785.438 246.949 785.937 247.344 786.519 247.63C787.112 247.917 787.783 248.06 788.533 248.06C789.501 248.06 790.321 247.862 790.992 247.467C791.663 247.072 792.251 246.544 792.755 245.883L794.413 247.201C794.068 247.724 793.628 248.223 793.095 248.697C792.562 249.171 791.905 249.556 791.125 249.852C790.355 250.148 789.442 250.296 788.385 250.296ZM807.921 246.89V227.251H810.676V250H808.158L807.921 246.89ZM797.139 242.165V241.854C797.139 240.63 797.287 239.519 797.583 238.522C797.889 237.515 798.318 236.651 798.871 235.93C799.434 235.209 800.101 234.656 800.871 234.271C801.651 233.876 802.52 233.679 803.478 233.679C804.485 233.679 805.363 233.856 806.114 234.212C806.874 234.557 807.516 235.066 808.039 235.737C808.572 236.399 808.992 237.199 809.298 238.137C809.604 239.075 809.817 240.136 809.935 241.321V242.683C809.826 243.858 809.614 244.915 809.298 245.853C808.992 246.791 808.572 247.591 808.039 248.252C807.516 248.914 806.874 249.422 806.114 249.778C805.354 250.123 804.465 250.296 803.448 250.296C802.51 250.296 801.651 250.094 800.871 249.689C800.101 249.284 799.434 248.716 798.871 247.986C798.318 247.255 797.889 246.396 797.583 245.409C797.287 244.411 797.139 243.33 797.139 242.165ZM799.893 241.854V242.165C799.893 242.965 799.972 243.715 800.13 244.416C800.298 245.117 800.555 245.734 800.9 246.268C801.246 246.801 801.685 247.221 802.219 247.527C802.752 247.823 803.389 247.971 804.129 247.971C805.038 247.971 805.783 247.778 806.366 247.393C806.958 247.008 807.432 246.5 807.787 245.868C808.143 245.236 808.419 244.55 808.617 243.809V240.24C808.498 239.697 808.326 239.173 808.098 238.67C807.881 238.156 807.595 237.702 807.239 237.307C806.894 236.902 806.464 236.581 805.951 236.344C805.447 236.107 804.85 235.989 804.159 235.989C803.408 235.989 802.762 236.147 802.219 236.463C801.685 236.769 801.246 237.194 800.9 237.737C800.555 238.27 800.298 238.892 800.13 239.603C799.972 240.304 799.893 241.054 799.893 241.854ZM817.918 233.975V250H815.163V233.975H817.918ZM814.956 229.724C814.956 229.28 815.089 228.905 815.356 228.598C815.632 228.292 816.037 228.139 816.57 228.139C817.094 228.139 817.493 228.292 817.77 228.598C818.056 228.905 818.199 229.28 818.199 229.724C818.199 230.149 818.056 230.514 817.77 230.82C817.493 231.116 817.094 231.264 816.57 231.264C816.037 231.264 815.632 231.116 815.356 230.82C815.089 230.514 814.956 230.149 814.956 229.724ZM831.766 247.26V239.01C831.766 238.378 831.638 237.83 831.381 237.366C831.134 236.892 830.759 236.527 830.255 236.27C829.752 236.014 829.13 235.885 828.389 235.885C827.698 235.885 827.091 236.004 826.568 236.241C826.054 236.478 825.649 236.789 825.353 237.174C825.067 237.559 824.924 237.974 824.924 238.418H822.184C822.184 237.845 822.332 237.278 822.628 236.715C822.924 236.152 823.349 235.643 823.902 235.189C824.464 234.725 825.136 234.36 825.916 234.093C826.706 233.817 827.585 233.679 828.552 233.679C829.717 233.679 830.744 233.876 831.633 234.271C832.531 234.666 833.232 235.263 833.736 236.063C834.249 236.853 834.506 237.845 834.506 239.04V246.505C834.506 247.038 834.551 247.606 834.639 248.208C834.738 248.81 834.881 249.329 835.069 249.763V250H832.21C832.072 249.684 831.964 249.264 831.885 248.741C831.806 248.208 831.766 247.714 831.766 247.26ZM832.24 240.284L832.27 242.21H829.5C828.72 242.21 828.024 242.274 827.412 242.402C826.8 242.521 826.286 242.703 825.871 242.95C825.457 243.197 825.141 243.508 824.924 243.883C824.706 244.248 824.598 244.678 824.598 245.172C824.598 245.675 824.711 246.134 824.938 246.549C825.165 246.964 825.506 247.295 825.96 247.541C826.424 247.778 826.992 247.897 827.664 247.897C828.503 247.897 829.243 247.719 829.885 247.364C830.527 247.008 831.035 246.574 831.411 246.06C831.796 245.547 832.003 245.048 832.033 244.564L833.203 245.883C833.134 246.297 832.946 246.756 832.64 247.26C832.334 247.764 831.924 248.247 831.411 248.711C830.907 249.166 830.305 249.546 829.604 249.852C828.913 250.148 828.133 250.296 827.264 250.296C826.178 250.296 825.225 250.084 824.405 249.659C823.595 249.235 822.964 248.667 822.509 247.956C822.065 247.235 821.843 246.431 821.843 245.542C821.843 244.683 822.011 243.928 822.346 243.276C822.682 242.614 823.166 242.066 823.798 241.632C824.43 241.188 825.19 240.852 826.079 240.625C826.967 240.398 827.96 240.284 829.056 240.284H832.24ZM845.614 242.165V241.824C845.614 240.669 845.782 239.598 846.118 238.611C846.453 237.613 846.937 236.749 847.569 236.019C848.201 235.278 848.966 234.705 849.865 234.301C850.763 233.886 851.771 233.679 852.886 233.679C854.012 233.679 855.024 233.886 855.922 234.301C856.831 234.705 857.601 235.278 858.233 236.019C858.875 236.749 859.364 237.613 859.699 238.611C860.035 239.598 860.203 240.669 860.203 241.824V242.165C860.203 243.32 860.035 244.392 859.699 245.379C859.364 246.366 858.875 247.23 858.233 247.971C857.601 248.702 856.836 249.274 855.937 249.689C855.049 250.094 854.042 250.296 852.916 250.296C851.79 250.296 850.778 250.094 849.88 249.689C848.981 249.274 848.211 248.702 847.569 247.971C846.937 247.23 846.453 246.366 846.118 245.379C845.782 244.392 845.614 243.32 845.614 242.165ZM848.354 241.824V242.165C848.354 242.965 848.448 243.72 848.636 244.431C848.823 245.132 849.105 245.754 849.48 246.297C849.865 246.84 850.344 247.27 850.916 247.586C851.489 247.892 852.156 248.045 852.916 248.045C853.666 248.045 854.323 247.892 854.886 247.586C855.458 247.27 855.932 246.84 856.308 246.297C856.683 245.754 856.964 245.132 857.152 244.431C857.349 243.72 857.448 242.965 857.448 242.165V241.824C857.448 241.035 857.349 240.289 857.152 239.588C856.964 238.877 856.678 238.25 856.293 237.707C855.918 237.154 855.444 236.72 854.871 236.404C854.308 236.088 853.647 235.93 852.886 235.93C852.136 235.93 851.474 236.088 850.902 236.404C850.339 236.72 849.865 237.154 849.48 237.707C849.105 238.25 848.823 238.877 848.636 239.588C848.448 240.289 848.354 241.035 848.354 241.824ZM866.379 236.493V250H863.639V233.975H866.305L866.379 236.493ZM871.385 233.886L871.37 236.433C871.143 236.384 870.926 236.354 870.718 236.344C870.521 236.325 870.294 236.315 870.037 236.315C869.405 236.315 868.847 236.414 868.363 236.611C867.88 236.809 867.47 237.085 867.134 237.44C866.798 237.796 866.532 238.221 866.334 238.714C866.147 239.198 866.023 239.731 865.964 240.314L865.194 240.758C865.194 239.79 865.288 238.882 865.475 238.033C865.673 237.184 865.974 236.433 866.379 235.782C866.784 235.12 867.297 234.607 867.919 234.241C868.551 233.866 869.302 233.679 870.17 233.679C870.368 233.679 870.595 233.703 870.852 233.753C871.108 233.792 871.286 233.837 871.385 233.886ZM889.232 228.436V250H886.418V228.436H889.232ZM896.163 228.436V230.776H879.501V228.436H896.163ZM900.562 236.493V250H897.822V233.975H900.488L900.562 236.493ZM905.568 233.886L905.553 236.433C905.326 236.384 905.109 236.354 904.902 236.344C904.704 236.325 904.477 236.315 904.22 236.315C903.588 236.315 903.031 236.414 902.547 236.611C902.063 236.809 901.653 237.085 901.317 237.44C900.982 237.796 900.715 238.221 900.518 238.714C900.33 239.198 900.207 239.731 900.147 240.314L899.377 240.758C899.377 239.79 899.471 238.882 899.659 238.033C899.856 237.184 900.157 236.433 900.562 235.782C900.967 235.12 901.48 234.607 902.102 234.241C902.734 233.866 903.485 233.679 904.354 233.679C904.551 233.679 904.778 233.703 905.035 233.753C905.292 233.792 905.469 233.837 905.568 233.886ZM916.958 247.26V239.01C916.958 238.378 916.829 237.83 916.573 237.366C916.326 236.892 915.951 236.527 915.447 236.27C914.943 236.014 914.321 235.885 913.581 235.885C912.89 235.885 912.282 236.004 911.759 236.241C911.246 236.478 910.841 236.789 910.545 237.174C910.258 237.559 910.115 237.974 910.115 238.418H907.375C907.375 237.845 907.523 237.278 907.819 236.715C908.116 236.152 908.54 235.643 909.093 235.189C909.656 234.725 910.327 234.36 911.107 234.093C911.897 233.817 912.776 233.679 913.744 233.679C914.909 233.679 915.936 233.876 916.824 234.271C917.723 234.666 918.424 235.263 918.927 236.063C919.441 236.853 919.698 237.845 919.698 239.04V246.505C919.698 247.038 919.742 247.606 919.831 248.208C919.93 248.81 920.073 249.329 920.26 249.763V250H917.402C917.264 249.684 917.155 249.264 917.076 248.741C916.997 248.208 916.958 247.714 916.958 247.26ZM917.432 240.284L917.461 242.21H914.692C913.912 242.21 913.215 242.274 912.603 242.402C911.991 242.521 911.478 242.703 911.063 242.95C910.648 243.197 910.332 243.508 910.115 243.883C909.898 244.248 909.789 244.678 909.789 245.172C909.789 245.675 909.903 246.134 910.13 246.549C910.357 246.964 910.698 247.295 911.152 247.541C911.616 247.778 912.184 247.897 912.855 247.897C913.694 247.897 914.435 247.719 915.077 247.364C915.718 247.008 916.227 246.574 916.602 246.06C916.987 245.547 917.195 245.048 917.224 244.564L918.394 245.883C918.325 246.297 918.138 246.756 917.831 247.26C917.525 247.764 917.116 248.247 916.602 248.711C916.099 249.166 915.496 249.546 914.795 249.852C914.104 250.148 913.324 250.296 912.455 250.296C911.369 250.296 910.416 250.084 909.597 249.659C908.787 249.235 908.155 248.667 907.701 247.956C907.257 247.235 907.034 246.431 907.034 245.542C907.034 244.683 907.202 243.928 907.538 243.276C907.874 242.614 908.358 242.066 908.989 241.632C909.621 241.188 910.382 240.852 911.27 240.625C912.159 240.398 913.151 240.284 914.247 240.284H917.432ZM926.748 237.396V250H924.008V233.975H926.599L926.748 237.396ZM926.096 241.38L924.955 241.336C924.965 240.24 925.128 239.228 925.444 238.299C925.76 237.361 926.205 236.547 926.777 235.856C927.35 235.165 928.031 234.631 928.821 234.256C929.621 233.871 930.505 233.679 931.472 233.679C932.262 233.679 932.973 233.787 933.605 234.004C934.237 234.212 934.775 234.547 935.219 235.012C935.674 235.476 936.019 236.078 936.256 236.818C936.493 237.549 936.612 238.443 936.612 239.499V250H933.857V239.47C933.857 238.63 933.733 237.959 933.486 237.455C933.24 236.942 932.879 236.572 932.405 236.344C931.931 236.107 931.349 235.989 930.658 235.989C929.976 235.989 929.354 236.132 928.791 236.419C928.239 236.705 927.76 237.1 927.355 237.603C926.96 238.107 926.649 238.685 926.422 239.336C926.205 239.978 926.096 240.659 926.096 241.38ZM950.104 245.749C950.104 245.354 950.015 244.989 949.838 244.653C949.67 244.308 949.319 243.997 948.786 243.72C948.263 243.434 947.473 243.187 946.416 242.98C945.528 242.792 944.723 242.57 944.002 242.313C943.291 242.056 942.684 241.745 942.18 241.38C941.687 241.015 941.307 240.585 941.04 240.092C940.773 239.598 940.64 239.02 940.64 238.359C940.64 237.727 940.778 237.129 941.055 236.567C941.341 236.004 941.741 235.505 942.254 235.071C942.778 234.636 943.405 234.296 944.135 234.049C944.866 233.802 945.681 233.679 946.579 233.679C947.863 233.679 948.959 233.906 949.867 234.36C950.776 234.814 951.472 235.421 951.956 236.182C952.439 236.932 952.681 237.766 952.681 238.685H949.941C949.941 238.24 949.808 237.811 949.541 237.396C949.285 236.971 948.904 236.621 948.401 236.344C947.907 236.068 947.3 235.93 946.579 235.93C945.819 235.93 945.202 236.048 944.728 236.285C944.264 236.512 943.923 236.804 943.706 237.159C943.499 237.515 943.395 237.89 943.395 238.285C943.395 238.581 943.444 238.847 943.543 239.084C943.652 239.312 943.839 239.524 944.106 239.721C944.372 239.909 944.748 240.087 945.231 240.255C945.715 240.422 946.332 240.59 947.083 240.758C948.396 241.054 949.477 241.41 950.326 241.824C951.175 242.239 951.807 242.748 952.222 243.35C952.637 243.952 952.844 244.683 952.844 245.542C952.844 246.243 952.696 246.885 952.4 247.467C952.113 248.05 951.694 248.553 951.141 248.978C950.598 249.393 949.946 249.719 949.186 249.956C948.435 250.183 947.591 250.296 946.653 250.296C945.241 250.296 944.047 250.044 943.069 249.541C942.092 249.037 941.351 248.386 940.847 247.586C940.344 246.786 940.092 245.942 940.092 245.053H942.847C942.886 245.804 943.104 246.401 943.499 246.845C943.894 247.28 944.377 247.591 944.95 247.778C945.523 247.956 946.09 248.045 946.653 248.045C947.404 248.045 948.031 247.946 948.534 247.749C949.048 247.551 949.438 247.28 949.704 246.934C949.971 246.589 950.104 246.194 950.104 245.749ZM962.856 248.045C963.508 248.045 964.11 247.912 964.663 247.645C965.216 247.378 965.67 247.013 966.026 246.549C966.381 246.075 966.584 245.537 966.633 244.935H969.24C969.19 245.883 968.869 246.766 968.277 247.586C967.694 248.395 966.929 249.052 965.981 249.556C965.033 250.049 963.992 250.296 962.856 250.296C961.652 250.296 960.6 250.084 959.702 249.659C958.813 249.235 958.072 248.652 957.48 247.912C956.897 247.171 956.458 246.322 956.162 245.364C955.875 244.397 955.732 243.375 955.732 242.298V241.676C955.732 240.6 955.875 239.583 956.162 238.625C956.458 237.658 956.897 236.804 957.48 236.063C958.072 235.323 958.813 234.74 959.702 234.315C960.6 233.891 961.652 233.679 962.856 233.679C964.11 233.679 965.206 233.935 966.144 234.449C967.082 234.952 967.818 235.643 968.351 236.522C968.894 237.391 969.19 238.378 969.24 239.484H966.633C966.584 238.823 966.396 238.225 966.07 237.692C965.754 237.159 965.32 236.734 964.767 236.419C964.224 236.093 963.587 235.93 962.856 235.93C962.017 235.93 961.311 236.098 960.738 236.433C960.175 236.759 959.726 237.203 959.391 237.766C959.065 238.319 958.828 238.936 958.68 239.618C958.541 240.289 958.472 240.975 958.472 241.676V242.298C958.472 242.999 958.541 243.691 958.68 244.372C958.818 245.053 959.05 245.67 959.376 246.223C959.711 246.776 960.161 247.221 960.723 247.556C961.296 247.882 962.007 248.045 962.856 248.045ZM975.06 236.493V250H972.32V233.975H974.986L975.06 236.493ZM980.066 233.886L980.052 236.433C979.824 236.384 979.607 236.354 979.4 236.344C979.202 236.325 978.975 236.315 978.719 236.315C978.087 236.315 977.529 236.414 977.045 236.611C976.561 236.809 976.151 237.085 975.816 237.44C975.48 237.796 975.213 238.221 975.016 238.714C974.828 239.198 974.705 239.731 974.646 240.314L973.875 240.758C973.875 239.79 973.969 238.882 974.157 238.033C974.354 237.184 974.655 236.433 975.06 235.782C975.465 235.12 975.979 234.607 976.601 234.241C977.233 233.866 977.983 233.679 978.852 233.679C979.049 233.679 979.276 233.703 979.533 233.753C979.79 233.792 979.968 233.837 980.066 233.886ZM985.576 233.975V250H982.821V233.975H985.576ZM982.614 229.724C982.614 229.28 982.747 228.905 983.014 228.598C983.29 228.292 983.695 228.139 984.228 228.139C984.751 228.139 985.151 228.292 985.428 228.598C985.714 228.905 985.857 229.28 985.857 229.724C985.857 230.149 985.714 230.514 985.428 230.82C985.151 231.116 984.751 231.264 984.228 231.264C983.695 231.264 983.29 231.116 983.014 230.82C982.747 230.514 982.614 230.149 982.614 229.724ZM992.715 237.055V256.161H989.96V233.975H992.478L992.715 237.055ZM1003.51 241.854V242.165C1003.51 243.33 1003.37 244.411 1003.1 245.409C1002.82 246.396 1002.42 247.255 1001.88 247.986C1001.36 248.716 1000.71 249.284 999.942 249.689C999.172 250.094 998.289 250.296 997.291 250.296C996.274 250.296 995.376 250.128 994.596 249.793C993.816 249.457 993.154 248.968 992.611 248.326C992.068 247.685 991.634 246.914 991.308 246.016C990.992 245.117 990.775 244.105 990.656 242.98V241.321C990.775 240.136 990.997 239.075 991.323 238.137C991.648 237.199 992.078 236.399 992.611 235.737C993.154 235.066 993.811 234.557 994.581 234.212C995.351 233.856 996.24 233.679 997.247 233.679C998.254 233.679 999.148 233.876 999.928 234.271C1000.71 234.656 1001.36 235.209 1001.9 235.93C1002.43 236.651 1002.83 237.515 1003.1 238.522C1003.37 239.519 1003.51 240.63 1003.51 241.854ZM1000.76 242.165V241.854C1000.76 241.054 1000.67 240.304 1000.51 239.603C1000.34 238.892 1000.08 238.27 999.72 237.737C999.375 237.194 998.93 236.769 998.387 236.463C997.844 236.147 997.197 235.989 996.447 235.989C995.756 235.989 995.154 236.107 994.64 236.344C994.137 236.581 993.707 236.902 993.352 237.307C992.996 237.702 992.705 238.156 992.478 238.67C992.261 239.173 992.098 239.697 991.989 240.24V244.076C992.186 244.767 992.463 245.419 992.818 246.031C993.174 246.633 993.648 247.122 994.24 247.497C994.833 247.862 995.578 248.045 996.477 248.045C997.217 248.045 997.854 247.892 998.387 247.586C998.93 247.27 999.375 246.84 999.72 246.297C1000.08 245.754 1000.34 245.132 1000.51 244.431C1000.67 243.72 1000.76 242.965 1000.76 242.165ZM1013.72 233.975V236.078H1005.05V233.975H1013.72ZM1007.98 230.08H1010.72V246.031C1010.72 246.574 1010.81 246.984 1010.98 247.26C1011.14 247.536 1011.36 247.719 1011.63 247.808C1011.89 247.897 1012.18 247.941 1012.49 247.941C1012.71 247.941 1012.95 247.922 1013.2 247.882C1013.45 247.833 1013.65 247.793 1013.78 247.764L1013.79 250C1013.57 250.069 1013.29 250.133 1012.93 250.193C1012.59 250.262 1012.17 250.296 1011.67 250.296C1011 250.296 1010.38 250.163 1009.82 249.896C1009.26 249.63 1008.81 249.185 1008.47 248.563C1008.15 247.931 1007.98 247.082 1007.98 246.016V230.08ZM1019.91 233.975V250H1017.15V233.975H1019.91ZM1016.95 229.724C1016.95 229.28 1017.08 228.905 1017.35 228.598C1017.62 228.292 1018.03 228.139 1018.56 228.139C1019.08 228.139 1019.48 228.292 1019.76 228.598C1020.05 228.905 1020.19 229.28 1020.19 229.724C1020.19 230.149 1020.05 230.514 1019.76 230.82C1019.48 231.116 1019.08 231.264 1018.56 231.264C1018.03 231.264 1017.62 231.116 1017.35 230.82C1017.08 230.514 1016.95 230.149 1016.95 229.724ZM1023.58 242.165V241.824C1023.58 240.669 1023.75 239.598 1024.08 238.611C1024.42 237.613 1024.9 236.749 1025.54 236.019C1026.17 235.278 1026.93 234.705 1027.83 234.301C1028.73 233.886 1029.74 233.679 1030.85 233.679C1031.98 233.679 1032.99 233.886 1033.89 234.301C1034.8 234.705 1035.57 235.278 1036.2 236.019C1036.84 236.749 1037.33 237.613 1037.67 238.611C1038 239.598 1038.17 240.669 1038.17 241.824V242.165C1038.17 243.32 1038 244.392 1037.67 245.379C1037.33 246.366 1036.84 247.23 1036.2 247.971C1035.57 248.702 1034.8 249.274 1033.9 249.689C1033.01 250.094 1032.01 250.296 1030.88 250.296C1029.76 250.296 1028.74 250.094 1027.85 249.689C1026.95 249.274 1026.18 248.702 1025.54 247.971C1024.9 247.23 1024.42 246.366 1024.08 245.379C1023.75 244.392 1023.58 243.32 1023.58 242.165ZM1026.32 241.824V242.165C1026.32 242.965 1026.41 243.72 1026.6 244.431C1026.79 245.132 1027.07 245.754 1027.45 246.297C1027.83 246.84 1028.31 247.27 1028.88 247.586C1029.46 247.892 1030.12 248.045 1030.88 248.045C1031.63 248.045 1032.29 247.892 1032.85 247.586C1033.42 247.27 1033.9 246.84 1034.27 246.297C1034.65 245.754 1034.93 245.132 1035.12 244.431C1035.32 243.72 1035.41 242.965 1035.41 242.165V241.824C1035.41 241.035 1035.32 240.289 1035.12 239.588C1034.93 238.877 1034.64 238.25 1034.26 237.707C1033.88 237.154 1033.41 236.72 1032.84 236.404C1032.27 236.088 1031.61 235.93 1030.85 235.93C1030.1 235.93 1029.44 236.088 1028.87 236.404C1028.31 236.72 1027.83 237.154 1027.45 237.707C1027.07 238.25 1026.79 238.877 1026.6 239.588C1026.41 240.289 1026.32 241.035 1026.32 241.824ZM1044.35 237.396V250H1041.61V233.975H1044.2L1044.35 237.396ZM1043.69 241.38L1042.55 241.336C1042.56 240.24 1042.73 239.228 1043.04 238.299C1043.36 237.361 1043.8 236.547 1044.37 235.856C1044.95 235.165 1045.63 234.631 1046.42 234.256C1047.22 233.871 1048.1 233.679 1049.07 233.679C1049.86 233.679 1050.57 233.787 1051.2 234.004C1051.83 234.212 1052.37 234.547 1052.82 235.012C1053.27 235.476 1053.62 236.078 1053.85 236.818C1054.09 237.549 1054.21 238.443 1054.21 239.499V250H1051.45V239.47C1051.45 238.63 1051.33 237.959 1051.08 237.455C1050.84 236.942 1050.48 236.572 1050 236.344C1049.53 236.107 1048.95 235.989 1048.26 235.989C1047.57 235.989 1046.95 236.132 1046.39 236.419C1045.84 236.705 1045.36 237.1 1044.95 237.603C1044.56 238.107 1044.25 238.685 1044.02 239.336C1043.8 239.978 1043.69 240.659 1043.69 241.38ZM1073.69 228.436V250H1070.87V228.436H1073.69ZM1080.62 228.436V230.776H1063.95V228.436H1080.62ZM1088.57 250.296C1087.45 250.296 1086.44 250.109 1085.53 249.733C1084.64 249.348 1083.86 248.81 1083.21 248.119C1082.57 247.428 1082.07 246.608 1081.73 245.66C1081.38 244.713 1081.21 243.676 1081.21 242.55V241.928C1081.21 240.625 1081.4 239.465 1081.79 238.448C1082.17 237.421 1082.7 236.552 1083.36 235.841C1084.02 235.13 1084.77 234.592 1085.61 234.227C1086.45 233.861 1087.32 233.679 1088.21 233.679C1089.36 233.679 1090.35 233.876 1091.18 234.271C1092.02 234.666 1092.7 235.219 1093.24 235.93C1093.77 236.631 1094.16 237.46 1094.42 238.418C1094.68 239.366 1094.81 240.403 1094.81 241.528V242.758H1082.84V240.521H1092.07V240.314C1092.03 239.603 1091.88 238.912 1091.62 238.24C1091.37 237.569 1090.98 237.016 1090.44 236.581C1089.89 236.147 1089.15 235.93 1088.21 235.93C1087.59 235.93 1087.02 236.063 1086.5 236.33C1085.97 236.586 1085.52 236.971 1085.15 237.485C1084.77 237.998 1084.48 238.625 1084.27 239.366C1084.07 240.106 1083.96 240.96 1083.96 241.928V242.55C1083.96 243.31 1084.07 244.026 1084.27 244.698C1084.49 245.359 1084.8 245.942 1085.21 246.445C1085.62 246.949 1086.12 247.344 1086.7 247.63C1087.3 247.917 1087.97 248.06 1088.72 248.06C1089.69 248.06 1090.51 247.862 1091.18 247.467C1091.85 247.072 1092.44 246.544 1092.94 245.883L1094.6 247.201C1094.25 247.724 1093.81 248.223 1093.28 248.697C1092.75 249.171 1092.09 249.556 1091.31 249.852C1090.54 250.148 1089.63 250.296 1088.57 250.296ZM1099.86 233.975L1103.37 239.81L1106.92 233.975H1110.13L1104.89 241.884L1110.3 250H1107.13L1103.43 243.987L1099.72 250H1096.54L1101.93 241.884L1096.7 233.975H1099.86ZM1119.76 233.975V236.078H1111.1V233.975H1119.76ZM1114.03 230.08H1116.77V246.031C1116.77 246.574 1116.85 246.984 1117.02 247.26C1117.19 247.536 1117.41 247.719 1117.67 247.808C1117.94 247.897 1118.23 247.941 1118.53 247.941C1118.76 247.941 1119 247.922 1119.24 247.882C1119.5 247.833 1119.69 247.793 1119.82 247.764L1119.84 250C1119.62 250.069 1119.33 250.133 1118.98 250.193C1118.63 250.262 1118.21 250.296 1117.72 250.296C1117.05 250.296 1116.43 250.163 1115.87 249.896C1115.3 249.63 1114.85 249.185 1114.52 248.563C1114.19 247.931 1114.03 247.082 1114.03 246.016V230.08ZM1129.28 241.232V241.38C1129.28 243.543 1129.04 245.498 1128.56 247.245C1128.08 248.993 1127.46 250.518 1126.71 251.822C1125.96 253.135 1125.17 254.221 1124.34 255.08C1123.51 255.949 1122.74 256.576 1122.04 256.961L1121.46 255.302C1122.05 254.858 1122.63 254.236 1123.23 253.436C1123.82 252.646 1124.37 251.669 1124.87 250.504C1125.37 249.348 1125.78 248.015 1126.09 246.505C1126.39 244.984 1126.54 243.286 1126.54 241.41V241.202C1126.54 239.326 1126.38 237.633 1126.06 236.122C1125.73 234.602 1125.31 233.264 1124.78 232.109C1124.27 230.953 1123.72 229.981 1123.12 229.191C1122.54 228.391 1121.99 227.774 1121.46 227.34L1122.04 225.666C1122.74 226.051 1123.51 226.678 1124.34 227.547C1125.17 228.406 1125.96 229.492 1126.71 230.805C1127.46 232.118 1128.08 233.649 1128.56 235.397C1129.04 237.134 1129.28 239.08 1129.28 241.232Z" fill="#49454F"/>
<path d="M416.598 282.938H418.789L424.379 296.848L429.957 282.938H432.16L425.223 300H423.512L416.598 282.938ZM415.883 282.938H417.816L418.133 293.344V300H415.883V282.938ZM430.93 282.938H432.863V300H430.613V293.344L430.93 282.938ZM443.129 293.309H438.57V291.469H443.129C444.012 291.469 444.727 291.328 445.273 291.047C445.82 290.766 446.219 290.375 446.469 289.875C446.727 289.375 446.855 288.805 446.855 288.164C446.855 287.578 446.727 287.027 446.469 286.512C446.219 285.996 445.82 285.582 445.273 285.27C444.727 284.949 444.012 284.789 443.129 284.789H439.098V300H436.836V282.938H443.129C444.418 282.938 445.508 283.16 446.398 283.605C447.289 284.051 447.965 284.668 448.426 285.457C448.887 286.238 449.117 287.133 449.117 288.141C449.117 289.234 448.887 290.168 448.426 290.941C447.965 291.715 447.289 292.305 446.398 292.711C445.508 293.109 444.418 293.309 443.129 293.309ZM462.945 294.258V296.039H450.617V294.762L458.258 282.938H460.027L458.129 286.359L453.078 294.258H462.945ZM460.566 282.938V300H458.398V282.938H460.566ZM467.117 297.422V299.168C467.117 299.879 466.938 300.629 466.578 301.418C466.219 302.215 465.715 302.879 465.066 303.41L463.836 302.555C464.086 302.211 464.297 301.859 464.469 301.5C464.641 301.148 464.77 300.781 464.855 300.398C464.949 300.023 464.996 299.625 464.996 299.203V297.422H467.117ZM476.879 282.938H479.07L484.66 296.848L490.238 282.938H492.441L485.504 300H483.793L476.879 282.938ZM476.164 282.938H478.098L478.414 293.344V300H476.164V282.938ZM491.211 282.938H493.145V300H490.895V293.344L491.211 282.938ZM510.254 290.93V292.008C510.254 293.289 510.094 294.438 509.773 295.453C509.453 296.469 508.992 297.332 508.391 298.043C507.789 298.754 507.066 299.297 506.223 299.672C505.387 300.047 504.449 300.234 503.41 300.234C502.402 300.234 501.477 300.047 500.633 299.672C499.797 299.297 499.07 298.754 498.453 298.043C497.844 297.332 497.371 296.469 497.035 295.453C496.699 294.438 496.531 293.289 496.531 292.008V290.93C496.531 289.648 496.695 288.504 497.023 287.496C497.359 286.48 497.832 285.617 498.441 284.906C499.051 284.188 499.773 283.641 500.609 283.266C501.453 282.891 502.379 282.703 503.387 282.703C504.426 282.703 505.363 282.891 506.199 283.266C507.043 283.641 507.766 284.188 508.367 284.906C508.977 285.617 509.441 286.48 509.762 287.496C510.09 288.504 510.254 289.648 510.254 290.93ZM508.016 292.008V290.906C508.016 289.891 507.91 288.992 507.699 288.211C507.496 287.43 507.195 286.773 506.797 286.242C506.398 285.711 505.91 285.309 505.332 285.035C504.762 284.762 504.113 284.625 503.387 284.625C502.684 284.625 502.047 284.762 501.477 285.035C500.914 285.309 500.43 285.711 500.023 286.242C499.625 286.773 499.316 287.43 499.098 288.211C498.879 288.992 498.77 289.891 498.77 290.906V292.008C498.77 293.031 498.879 293.938 499.098 294.727C499.316 295.508 499.629 296.168 500.035 296.707C500.449 297.238 500.938 297.641 501.5 297.914C502.07 298.188 502.707 298.324 503.41 298.324C504.145 298.324 504.797 298.188 505.367 297.914C505.938 297.641 506.418 297.238 506.809 296.707C507.207 296.168 507.508 295.508 507.711 294.727C507.914 293.938 508.016 293.031 508.016 292.008ZM518.891 297.41L523.918 282.938H526.367L520.051 300H518.305L518.891 297.41ZM514.191 282.938L519.172 297.41L519.793 300H518.047L511.742 282.938H514.191ZM527.656 297.422V299.168C527.656 299.879 527.477 300.629 527.117 301.418C526.758 302.215 526.254 302.879 525.605 303.41L524.375 302.555C524.625 302.211 524.836 301.859 525.008 301.5C525.18 301.148 525.309 300.781 525.395 300.398C525.488 300.023 525.535 299.625 525.535 299.203V297.422H527.656ZM537.418 282.938H539.609L545.199 296.848L550.777 282.938H552.98L546.043 300H544.332L537.418 282.938ZM536.703 282.938H538.637L538.953 293.344V300H536.703V282.938ZM551.75 282.938H553.684V300H551.434V293.344L551.75 282.938ZM563.949 293.309H559.391V291.469H563.949C564.832 291.469 565.547 291.328 566.094 291.047C566.641 290.766 567.039 290.375 567.289 289.875C567.547 289.375 567.676 288.805 567.676 288.164C567.676 287.578 567.547 287.027 567.289 286.512C567.039 285.996 566.641 285.582 566.094 285.27C565.547 284.949 564.832 284.789 563.949 284.789H559.918V300H557.656V282.938H563.949C565.238 282.938 566.328 283.16 567.219 283.605C568.109 284.051 568.785 284.668 569.246 285.457C569.707 286.238 569.938 287.133 569.938 288.141C569.938 289.234 569.707 290.168 569.246 290.941C568.785 291.715 568.109 292.305 567.219 292.711C566.328 293.109 565.238 293.309 563.949 293.309ZM575.398 290.402H576.945C577.703 290.402 578.328 290.277 578.82 290.027C579.32 289.77 579.691 289.422 579.934 288.984C580.184 288.539 580.309 288.039 580.309 287.484C580.309 286.828 580.199 286.277 579.98 285.832C579.762 285.387 579.434 285.051 578.996 284.824C578.559 284.598 578.004 284.484 577.332 284.484C576.723 284.484 576.184 284.605 575.715 284.848C575.254 285.082 574.891 285.418 574.625 285.855C574.367 286.293 574.238 286.809 574.238 287.402H572.07C572.07 286.535 572.289 285.746 572.727 285.035C573.164 284.324 573.777 283.758 574.566 283.336C575.363 282.914 576.285 282.703 577.332 282.703C578.363 282.703 579.266 282.887 580.039 283.254C580.812 283.613 581.414 284.152 581.844 284.871C582.273 285.582 582.488 286.469 582.488 287.531C582.488 287.961 582.387 288.422 582.184 288.914C581.988 289.398 581.68 289.852 581.258 290.273C580.844 290.695 580.305 291.043 579.641 291.316C578.977 291.582 578.18 291.715 577.25 291.715H575.398V290.402ZM575.398 292.184V290.883H577.25C578.336 290.883 579.234 291.012 579.945 291.27C580.656 291.527 581.215 291.871 581.621 292.301C582.035 292.73 582.324 293.203 582.488 293.719C582.66 294.227 582.746 294.734 582.746 295.242C582.746 296.039 582.609 296.746 582.336 297.363C582.07 297.98 581.691 298.504 581.199 298.934C580.715 299.363 580.145 299.688 579.488 299.906C578.832 300.125 578.117 300.234 577.344 300.234C576.602 300.234 575.902 300.129 575.246 299.918C574.598 299.707 574.023 299.402 573.523 299.004C573.023 298.598 572.633 298.102 572.352 297.516C572.07 296.922 571.93 296.246 571.93 295.488H574.098C574.098 296.082 574.227 296.602 574.484 297.047C574.75 297.492 575.125 297.84 575.609 298.09C576.102 298.332 576.68 298.453 577.344 298.453C578.008 298.453 578.578 298.34 579.055 298.113C579.539 297.879 579.91 297.527 580.168 297.059C580.434 296.59 580.566 296 580.566 295.289C580.566 294.578 580.418 293.996 580.121 293.543C579.824 293.082 579.402 292.742 578.855 292.523C578.316 292.297 577.68 292.184 576.945 292.184H575.398ZM587.938 297.422V299.168C587.938 299.879 587.758 300.629 587.398 301.418C587.039 302.215 586.535 302.879 585.887 303.41L584.656 302.555C584.906 302.211 585.117 301.859 585.289 301.5C585.461 301.148 585.59 300.781 585.676 300.398C585.77 300.023 585.816 299.625 585.816 299.203V297.422H587.938ZM601.473 294.844L604.859 282.938H606.5L605.551 287.566L601.906 300H600.277L601.473 294.844ZM597.969 282.938L600.664 294.609L601.473 300H599.855L595.719 282.938H597.969ZM610.883 294.598L613.52 282.938H615.781L611.656 300H610.039L610.883 294.598ZM606.746 282.938L610.039 294.844L611.234 300H609.605L606.09 287.566L605.129 282.938H606.746ZM624.09 284.449L618.441 300H616.133L622.637 282.938H624.125L624.09 284.449ZM628.824 300L623.164 284.449L623.129 282.938H624.617L631.145 300H628.824ZM628.531 293.684V295.535H618.945V293.684H628.531ZM637.906 297.41L642.934 282.938H645.383L639.066 300H637.32L637.906 297.41ZM633.207 282.938L638.188 297.41L638.809 300H637.062L630.758 282.938H633.207ZM646.672 297.422V299.168C646.672 299.879 646.492 300.629 646.133 301.418C645.773 302.215 645.27 302.879 644.621 303.41L643.391 302.555C643.641 302.211 643.852 301.859 644.023 301.5C644.195 301.148 644.324 300.781 644.41 300.398C644.504 300.023 644.551 299.625 644.551 299.203V297.422H646.672ZM662.012 293.309H657.453V291.469H662.012C662.895 291.469 663.609 291.328 664.156 291.047C664.703 290.766 665.102 290.375 665.352 289.875C665.609 289.375 665.738 288.805 665.738 288.164C665.738 287.578 665.609 287.027 665.352 286.512C665.102 285.996 664.703 285.582 664.156 285.27C663.609 284.949 662.895 284.789 662.012 284.789H657.98V300H655.719V282.938H662.012C663.301 282.938 664.391 283.16 665.281 283.605C666.172 284.051 666.848 284.668 667.309 285.457C667.77 286.238 668 287.133 668 288.141C668 289.234 667.77 290.168 667.309 290.941C666.848 291.715 666.172 292.305 665.281 292.711C664.391 293.109 663.301 293.309 662.012 293.309ZM675.477 300H671.914L671.938 298.16H675.477C676.695 298.16 677.711 297.906 678.523 297.398C679.336 296.883 679.945 296.164 680.352 295.242C680.766 294.312 680.973 293.227 680.973 291.984V290.941C680.973 289.965 680.855 289.098 680.621 288.34C680.387 287.574 680.043 286.93 679.59 286.406C679.137 285.875 678.582 285.473 677.926 285.199C677.277 284.926 676.531 284.789 675.688 284.789H671.844V282.938H675.688C676.805 282.938 677.824 283.125 678.746 283.5C679.668 283.867 680.461 284.402 681.125 285.105C681.797 285.801 682.312 286.645 682.672 287.637C683.031 288.621 683.211 289.73 683.211 290.965V291.984C683.211 293.219 683.031 294.332 682.672 295.324C682.312 296.309 681.793 297.148 681.113 297.844C680.441 298.539 679.629 299.074 678.676 299.449C677.73 299.816 676.664 300 675.477 300ZM673.121 282.938V300H670.859V282.938H673.121ZM688.871 282.938V300H686.609V282.938H688.871ZM696.02 290.613V292.465H688.379V290.613H696.02ZM697.18 282.938V284.789H688.379V282.938H697.18ZM698.773 297.422V299.168C698.773 299.879 698.594 300.629 698.234 301.418C697.875 302.215 697.371 302.879 696.723 303.41L695.492 302.555C695.742 302.211 695.953 301.859 696.125 301.5C696.297 301.148 696.426 300.781 696.512 300.398C696.605 300.023 696.652 299.625 696.652 299.203V297.422H698.773ZM712.438 300H708.875L708.898 298.16H712.438C713.656 298.16 714.672 297.906 715.484 297.398C716.297 296.883 716.906 296.164 717.312 295.242C717.727 294.312 717.934 293.227 717.934 291.984V290.941C717.934 289.965 717.816 289.098 717.582 288.34C717.348 287.574 717.004 286.93 716.551 286.406C716.098 285.875 715.543 285.473 714.887 285.199C714.238 284.926 713.492 284.789 712.648 284.789H708.805V282.938H712.648C713.766 282.938 714.785 283.125 715.707 283.5C716.629 283.867 717.422 284.402 718.086 285.105C718.758 285.801 719.273 286.645 719.633 287.637C719.992 288.621 720.172 289.73 720.172 290.965V291.984C720.172 293.219 719.992 294.332 719.633 295.324C719.273 296.309 718.754 297.148 718.074 297.844C717.402 298.539 716.59 299.074 715.637 299.449C714.691 299.816 713.625 300 712.438 300ZM710.082 282.938V300H707.82V282.938H710.082ZM736.707 290.93V292.008C736.707 293.289 736.547 294.438 736.227 295.453C735.906 296.469 735.445 297.332 734.844 298.043C734.242 298.754 733.52 299.297 732.676 299.672C731.84 300.047 730.902 300.234 729.863 300.234C728.855 300.234 727.93 300.047 727.086 299.672C726.25 299.297 725.523 298.754 724.906 298.043C724.297 297.332 723.824 296.469 723.488 295.453C723.152 294.438 722.984 293.289 722.984 292.008V290.93C722.984 289.648 723.148 288.504 723.477 287.496C723.812 286.48 724.285 285.617 724.895 284.906C725.504 284.188 726.227 283.641 727.062 283.266C727.906 282.891 728.832 282.703 729.84 282.703C730.879 282.703 731.816 282.891 732.652 283.266C733.496 283.641 734.219 284.188 734.82 284.906C735.43 285.617 735.895 286.48 736.215 287.496C736.543 288.504 736.707 289.648 736.707 290.93ZM734.469 292.008V290.906C734.469 289.891 734.363 288.992 734.152 288.211C733.949 287.43 733.648 286.773 733.25 286.242C732.852 285.711 732.363 285.309 731.785 285.035C731.215 284.762 730.566 284.625 729.84 284.625C729.137 284.625 728.5 284.762 727.93 285.035C727.367 285.309 726.883 285.711 726.477 286.242C726.078 286.773 725.77 287.43 725.551 288.211C725.332 288.992 725.223 289.891 725.223 290.906V292.008C725.223 293.031 725.332 293.938 725.551 294.727C725.77 295.508 726.082 296.168 726.488 296.707C726.902 297.238 727.391 297.641 727.953 297.914C728.523 298.188 729.16 298.324 729.863 298.324C730.598 298.324 731.25 298.188 731.82 297.914C732.391 297.641 732.871 297.238 733.262 296.707C733.66 296.168 733.961 295.508 734.164 294.727C734.367 293.938 734.469 293.031 734.469 292.008ZM750.395 294.574H752.645C752.527 295.652 752.219 296.617 751.719 297.469C751.219 298.32 750.512 298.996 749.598 299.496C748.684 299.988 747.543 300.234 746.176 300.234C745.176 300.234 744.266 300.047 743.445 299.672C742.633 299.297 741.934 298.766 741.348 298.078C740.762 297.383 740.309 296.551 739.988 295.582C739.676 294.605 739.52 293.52 739.52 292.324V290.625C739.52 289.43 739.676 288.348 739.988 287.379C740.309 286.402 740.766 285.566 741.359 284.871C741.961 284.176 742.684 283.641 743.527 283.266C744.371 282.891 745.32 282.703 746.375 282.703C747.664 282.703 748.754 282.945 749.645 283.43C750.535 283.914 751.227 284.586 751.719 285.445C752.219 286.297 752.527 287.285 752.645 288.41H750.395C750.285 287.613 750.082 286.93 749.785 286.359C749.488 285.781 749.066 285.336 748.52 285.023C747.973 284.711 747.258 284.555 746.375 284.555C745.617 284.555 744.949 284.699 744.371 284.988C743.801 285.277 743.32 285.688 742.93 286.219C742.547 286.75 742.258 287.387 742.062 288.129C741.867 288.871 741.77 289.695 741.77 290.602V292.324C741.77 293.16 741.855 293.945 742.027 294.68C742.207 295.414 742.477 296.059 742.836 296.613C743.195 297.168 743.652 297.605 744.207 297.926C744.762 298.238 745.418 298.395 746.176 298.395C747.137 298.395 747.902 298.242 748.473 297.938C749.043 297.633 749.473 297.195 749.762 296.625C750.059 296.055 750.27 295.371 750.395 294.574ZM757.191 282.938L761.293 289.477L765.395 282.938H768.031L762.641 291.387L768.16 300H765.5L761.293 293.332L757.086 300H754.426L759.945 291.387L754.555 282.938H757.191ZM775.824 293.801V293.531C775.824 292.617 775.957 291.77 776.223 290.988C776.488 290.199 776.871 289.516 777.371 288.938C777.871 288.352 778.477 287.898 779.188 287.578C779.898 287.25 780.695 287.086 781.578 287.086C782.469 287.086 783.27 287.25 783.98 287.578C784.699 287.898 785.309 288.352 785.809 288.938C786.316 289.516 786.703 290.199 786.969 290.988C787.234 291.77 787.367 292.617 787.367 293.531V293.801C787.367 294.715 787.234 295.562 786.969 296.344C786.703 297.125 786.316 297.809 785.809 298.395C785.309 298.973 784.703 299.426 783.992 299.754C783.289 300.074 782.492 300.234 781.602 300.234C780.711 300.234 779.91 300.074 779.199 299.754C778.488 299.426 777.879 298.973 777.371 298.395C776.871 297.809 776.488 297.125 776.223 296.344C775.957 295.562 775.824 294.715 775.824 293.801ZM777.992 293.531V293.801C777.992 294.434 778.066 295.031 778.215 295.594C778.363 296.148 778.586 296.641 778.883 297.07C779.188 297.5 779.566 297.84 780.02 298.09C780.473 298.332 781 298.453 781.602 298.453C782.195 298.453 782.715 298.332 783.16 298.09C783.613 297.84 783.988 297.5 784.285 297.07C784.582 296.641 784.805 296.148 784.953 295.594C785.109 295.031 785.188 294.434 785.188 293.801V293.531C785.188 292.906 785.109 292.316 784.953 291.762C784.805 291.199 784.578 290.703 784.273 290.273C783.977 289.836 783.602 289.492 783.148 289.242C782.703 288.992 782.18 288.867 781.578 288.867C780.984 288.867 780.461 288.992 780.008 289.242C779.562 289.492 779.188 289.836 778.883 290.273C778.586 290.703 778.363 291.199 778.215 291.762C778.066 292.316 777.992 292.906 777.992 293.531ZM792.254 289.312V300H790.086V287.32H792.195L792.254 289.312ZM796.215 287.25L796.203 289.266C796.023 289.227 795.852 289.203 795.688 289.195C795.531 289.18 795.352 289.172 795.148 289.172C794.648 289.172 794.207 289.25 793.824 289.406C793.441 289.562 793.117 289.781 792.852 290.062C792.586 290.344 792.375 290.68 792.219 291.07C792.07 291.453 791.973 291.875 791.926 292.336L791.316 292.688C791.316 291.922 791.391 291.203 791.539 290.531C791.695 289.859 791.934 289.266 792.254 288.75C792.574 288.227 792.98 287.82 793.473 287.531C793.973 287.234 794.566 287.086 795.254 287.086C795.41 287.086 795.59 287.105 795.793 287.145C795.996 287.176 796.137 287.211 796.215 287.25ZM810.336 282.938V300H808.109V282.938H810.336ZM815.82 282.938V284.789H802.637V282.938H815.82ZM819.816 282.938L823.918 289.477L828.02 282.938H830.656L825.266 291.387L830.785 300H828.125L823.918 293.332L819.711 300H817.051L822.57 291.387L817.18 282.938H819.816ZM839.703 282.938V300H837.477V282.938H839.703ZM845.188 282.938V284.789H832.004V282.938H845.188ZM855.77 300H853.602V286.219C853.602 285.258 853.789 284.445 854.164 283.781C854.539 283.117 855.074 282.613 855.77 282.27C856.465 281.926 857.289 281.754 858.242 281.754C858.805 281.754 859.355 281.824 859.895 281.965C860.434 282.098 860.988 282.266 861.559 282.469L861.195 284.297C860.836 284.156 860.418 284.023 859.941 283.898C859.473 283.766 858.957 283.699 858.395 283.699C857.465 283.699 856.793 283.91 856.379 284.332C855.973 284.746 855.77 285.375 855.77 286.219V300ZM858.359 287.32V288.984H851.598V287.32H858.359ZM862.625 287.32V300H860.457V287.32H862.625ZM868.543 282V300H866.363V282H868.543ZM877.285 300.234C876.402 300.234 875.602 300.086 874.883 299.789C874.172 299.484 873.559 299.059 873.043 298.512C872.535 297.965 872.145 297.316 871.871 296.566C871.598 295.816 871.461 294.996 871.461 294.105V293.613C871.461 292.582 871.613 291.664 871.918 290.859C872.223 290.047 872.637 289.359 873.16 288.797C873.684 288.234 874.277 287.809 874.941 287.52C875.605 287.23 876.293 287.086 877.004 287.086C877.91 287.086 878.691 287.242 879.348 287.555C880.012 287.867 880.555 288.305 880.977 288.867C881.398 289.422 881.711 290.078 881.914 290.836C882.117 291.586 882.219 292.406 882.219 293.297V294.27H872.75V292.5H880.051V292.336C880.02 291.773 879.902 291.227 879.699 290.695C879.504 290.164 879.191 289.727 878.762 289.383C878.332 289.039 877.746 288.867 877.004 288.867C876.512 288.867 876.059 288.973 875.645 289.184C875.23 289.387 874.875 289.691 874.578 290.098C874.281 290.504 874.051 291 873.887 291.586C873.723 292.172 873.641 292.848 873.641 293.613V294.105C873.641 294.707 873.723 295.273 873.887 295.805C874.059 296.328 874.305 296.789 874.625 297.188C874.953 297.586 875.348 297.898 875.809 298.125C876.277 298.352 876.809 298.465 877.402 298.465C878.168 298.465 878.816 298.309 879.348 297.996C879.879 297.684 880.344 297.266 880.742 296.742L882.055 297.785C881.781 298.199 881.434 298.594 881.012 298.969C880.59 299.344 880.07 299.648 879.453 299.883C878.844 300.117 878.121 300.234 877.285 300.234Z" fill="black" fill-opacity="0.4"/>
<g clip-path="url(#clip1_0_1)">
<path d="M597.125 368.065C597.125 367.671 597.063 367.32 596.94 367.013C596.826 366.706 596.62 366.425 596.322 366.17C596.024 365.916 595.603 365.67 595.059 365.433C594.524 365.188 593.839 364.938 593.006 364.683C592.093 364.403 591.251 364.091 590.479 363.749C589.716 363.398 589.049 362.995 588.479 362.538C587.909 362.073 587.466 361.543 587.15 360.946C586.834 360.341 586.676 359.643 586.676 358.854C586.676 358.073 586.839 357.363 587.163 356.722C587.497 356.082 587.966 355.529 588.571 355.064C589.185 354.59 589.909 354.226 590.742 353.972C591.576 353.709 592.497 353.577 593.506 353.577C594.927 353.577 596.151 353.84 597.177 354.367C598.213 354.893 599.006 355.599 599.559 356.485C600.121 357.371 600.401 358.349 600.401 359.42H597.125C597.125 358.788 596.989 358.231 596.717 357.749C596.454 357.257 596.05 356.871 595.506 356.591C594.971 356.31 594.291 356.169 593.466 356.169C592.686 356.169 592.036 356.288 591.519 356.525C591.001 356.762 590.615 357.082 590.361 357.485C590.106 357.889 589.979 358.345 589.979 358.854C589.979 359.214 590.063 359.543 590.229 359.841C590.396 360.13 590.65 360.402 590.993 360.657C591.335 360.902 591.765 361.135 592.282 361.354C592.8 361.573 593.409 361.784 594.111 361.986C595.173 362.302 596.098 362.652 596.888 363.039C597.677 363.416 598.335 363.846 598.862 364.328C599.388 364.811 599.783 365.359 600.046 365.973C600.309 366.578 600.441 367.267 600.441 368.039C600.441 368.846 600.278 369.574 599.954 370.223C599.629 370.864 599.164 371.412 598.559 371.868C597.962 372.316 597.243 372.662 596.401 372.908C595.568 373.145 594.638 373.263 593.611 373.263C592.69 373.263 591.782 373.14 590.887 372.895C590.001 372.649 589.194 372.276 588.466 371.776C587.738 371.267 587.159 370.636 586.729 369.881C586.299 369.118 586.084 368.228 586.084 367.21H589.387C589.387 367.833 589.492 368.364 589.703 368.802C589.922 369.241 590.225 369.601 590.611 369.881C590.997 370.153 591.444 370.355 591.953 370.487C592.471 370.618 593.023 370.684 593.611 370.684C594.383 370.684 595.028 370.574 595.546 370.355C596.072 370.136 596.467 369.829 596.73 369.434C596.993 369.039 597.125 368.583 597.125 368.065ZM609.516 373.263C608.463 373.263 607.511 373.092 606.66 372.75C605.818 372.399 605.099 371.912 604.502 371.289C603.914 370.666 603.463 369.934 603.147 369.092C602.831 368.25 602.673 367.342 602.673 366.368V365.841C602.673 364.727 602.835 363.718 603.16 362.815C603.484 361.911 603.936 361.139 604.515 360.499C605.094 359.85 605.779 359.354 606.568 359.012C607.358 358.67 608.213 358.499 609.134 358.499C610.152 358.499 611.042 358.67 611.805 359.012C612.569 359.354 613.2 359.836 613.7 360.459C614.209 361.073 614.586 361.806 614.832 362.657C615.086 363.508 615.214 364.447 615.214 365.473V366.828H604.213V364.552H612.082V364.302C612.064 363.732 611.95 363.196 611.74 362.696C611.538 362.196 611.226 361.793 610.805 361.486C610.384 361.179 609.823 361.025 609.121 361.025C608.595 361.025 608.125 361.139 607.713 361.367C607.309 361.587 606.972 361.907 606.7 362.328C606.428 362.749 606.217 363.258 606.068 363.854C605.928 364.442 605.857 365.104 605.857 365.841V366.368C605.857 366.991 605.941 367.57 606.108 368.105C606.283 368.631 606.537 369.092 606.871 369.486C607.204 369.881 607.608 370.193 608.081 370.421C608.555 370.64 609.095 370.75 609.7 370.75C610.463 370.75 611.143 370.596 611.74 370.289C612.336 369.982 612.854 369.548 613.292 368.986L614.964 370.605C614.657 371.052 614.257 371.482 613.766 371.895C613.275 372.298 612.674 372.627 611.963 372.882C611.262 373.136 610.446 373.263 609.516 373.263ZM621.275 352.787V373H618.091V352.787H621.275ZM631.219 373.263C630.166 373.263 629.214 373.092 628.363 372.75C627.521 372.399 626.802 371.912 626.205 371.289C625.617 370.666 625.165 369.934 624.85 369.092C624.534 368.25 624.376 367.342 624.376 366.368V365.841C624.376 364.727 624.538 363.718 624.863 362.815C625.187 361.911 625.639 361.139 626.218 360.499C626.797 359.85 627.481 359.354 628.271 359.012C629.061 358.67 629.916 358.499 630.837 358.499C631.855 358.499 632.745 358.67 633.508 359.012C634.272 359.354 634.903 359.836 635.403 360.459C635.912 361.073 636.289 361.806 636.535 362.657C636.789 363.508 636.917 364.447 636.917 365.473V366.828H625.915V364.552H633.785V364.302C633.767 363.732 633.653 363.196 633.443 362.696C633.241 362.196 632.929 361.793 632.508 361.486C632.087 361.179 631.526 361.025 630.824 361.025C630.297 361.025 629.828 361.139 629.416 361.367C629.012 361.587 628.675 361.907 628.403 362.328C628.131 362.749 627.92 363.258 627.771 363.854C627.631 364.442 627.56 365.104 627.56 365.841V366.368C627.56 366.991 627.644 367.57 627.81 368.105C627.986 368.631 628.24 369.092 628.574 369.486C628.907 369.881 629.311 370.193 629.784 370.421C630.258 370.64 630.798 370.75 631.403 370.75C632.166 370.75 632.846 370.596 633.443 370.289C634.039 369.982 634.557 369.548 634.995 368.986L636.667 370.605C636.359 371.052 635.96 371.482 635.469 371.895C634.978 372.298 634.377 372.627 633.666 372.882C632.964 373.136 632.149 373.263 631.219 373.263ZM645.399 370.737C645.917 370.737 646.382 370.636 646.794 370.434C647.215 370.223 647.553 369.934 647.807 369.565C648.071 369.197 648.215 368.772 648.242 368.289H651.229C651.211 369.21 650.939 370.048 650.413 370.802C649.887 371.557 649.189 372.158 648.321 372.605C647.452 373.044 646.492 373.263 645.439 373.263C644.351 373.263 643.404 373.079 642.596 372.71C641.789 372.333 641.118 371.816 640.583 371.158C640.048 370.5 639.644 369.741 639.372 368.881C639.109 368.021 638.978 367.1 638.978 366.118V365.657C638.978 364.675 639.109 363.753 639.372 362.894C639.644 362.025 640.048 361.262 640.583 360.604C641.118 359.946 641.789 359.433 642.596 359.064C643.404 358.687 644.347 358.499 645.426 358.499C646.566 358.499 647.566 358.727 648.426 359.183C649.286 359.63 649.961 360.258 650.452 361.065C650.952 361.863 651.211 362.793 651.229 363.854H648.242C648.215 363.328 648.084 362.854 647.847 362.433C647.619 362.003 647.294 361.661 646.873 361.407C646.461 361.152 645.965 361.025 645.386 361.025C644.746 361.025 644.215 361.157 643.794 361.42C643.373 361.674 643.044 362.025 642.807 362.473C642.57 362.911 642.399 363.407 642.294 363.96C642.197 364.504 642.149 365.069 642.149 365.657V366.118C642.149 366.706 642.197 367.276 642.294 367.828C642.39 368.381 642.557 368.877 642.794 369.315C643.039 369.745 643.373 370.092 643.794 370.355C644.215 370.609 644.75 370.737 645.399 370.737ZM660.383 358.762V361.078H652.356V358.762H660.383ZM654.672 355.275H657.843V369.065C657.843 369.504 657.904 369.842 658.027 370.079C658.159 370.307 658.339 370.46 658.567 370.539C658.795 370.618 659.062 370.658 659.369 370.658C659.589 370.658 659.799 370.645 660.001 370.618C660.203 370.592 660.365 370.566 660.488 370.539L660.501 372.961C660.238 373.039 659.931 373.11 659.58 373.171C659.238 373.232 658.843 373.263 658.396 373.263C657.668 373.263 657.023 373.136 656.461 372.882C655.9 372.618 655.461 372.193 655.145 371.605C654.83 371.017 654.672 370.237 654.672 369.263V355.275ZM673.545 353.84V373H670.242V353.84H673.545ZM681.362 362.223V364.841H672.703V362.223H681.362ZM682.454 353.84V356.472H672.703V353.84H682.454ZM688.358 358.762V373H685.173V358.762H688.358ZM684.963 355.025C684.963 354.542 685.12 354.143 685.436 353.827C685.761 353.502 686.208 353.34 686.779 353.34C687.34 353.34 687.783 353.502 688.108 353.827C688.432 354.143 688.595 354.542 688.595 355.025C688.595 355.498 688.432 355.893 688.108 356.209C687.783 356.525 687.34 356.683 686.779 356.683C686.208 356.683 685.761 356.525 685.436 356.209C685.12 355.893 684.963 355.498 684.963 355.025ZM695.419 352.787V373H692.235V352.787H695.419ZM705.363 373.263C704.31 373.263 703.358 373.092 702.507 372.75C701.665 372.399 700.946 371.912 700.349 371.289C699.761 370.666 699.309 369.934 698.994 369.092C698.678 368.25 698.52 367.342 698.52 366.368V365.841C698.52 364.727 698.682 363.718 699.007 362.815C699.331 361.911 699.783 361.139 700.362 360.499C700.941 359.85 701.625 359.354 702.415 359.012C703.205 358.67 704.06 358.499 704.981 358.499C705.999 358.499 706.889 358.67 707.652 359.012C708.416 359.354 709.047 359.836 709.547 360.459C710.056 361.073 710.433 361.806 710.679 362.657C710.933 363.508 711.061 364.447 711.061 365.473V366.828H700.06V364.552H707.929V364.302C707.911 363.732 707.797 363.196 707.587 362.696C707.385 362.196 707.073 361.793 706.652 361.486C706.231 361.179 705.67 361.025 704.968 361.025C704.442 361.025 703.972 361.139 703.56 361.367C703.156 361.587 702.819 361.907 702.547 362.328C702.275 362.749 702.064 363.258 701.915 363.854C701.775 364.442 701.704 365.104 701.704 365.841V366.368C701.704 366.991 701.788 367.57 701.954 368.105C702.13 368.631 702.384 369.092 702.718 369.486C703.051 369.881 703.455 370.193 703.928 370.421C704.402 370.64 704.942 370.75 705.547 370.75C706.31 370.75 706.99 370.596 707.587 370.289C708.183 369.982 708.701 369.548 709.139 368.986L710.811 370.605C710.504 371.052 710.104 371.482 709.613 371.895C709.122 372.298 708.521 372.627 707.81 372.882C707.108 373.136 706.293 373.263 705.363 373.263Z" fill="#7E22CE"/>
</g>
<rect x="539.763" y="326.963" width="217.475" height="75.075" rx="37.5375" stroke="#7E22CE" stroke-width="1.925"/>
<defs>
<filter id="filter0_ddddd_0_1" x="0" y="0" width="1323" height="520" filterUnits="userSpaceOnUse" color-interpolation-filters="sRGB">
<feFlood flood-opacity="0" result="BackgroundImageFix"/>
<feColorMatrix in="SourceAlpha" type="matrix" values="0 0 0 0 0 0 0 0 0 0 0 0 0 0 0 0 0 0 127 0" result="hardAlpha"/>
<feOffset/>
<feColorMatrix type="matrix" values="0 0 0 0 0 0 0 0 0 0 0 0 0 0 0 0 0 0 0.06 0"/>
<feBlend mode="normal" in2="BackgroundImageFix" result="effect1_dropShadow_0_1"/>
<feColorMatrix in="SourceAlpha" type="matrix" values="0 0 0 0 0 0 0 0 0 0 0 0 0 0 0 0 0 0 127 0" result="hardAlpha"/>
<feOffset dx="1" dy="2"/>
<feGaussianBlur stdDeviation="2.5"/>
<feColorMatrix type="matrix" values="0 0 0 0 0 0 0 0 0 0 0 0 0 0 0 0 0 0 0.06 0"/>
<feBlend mode="normal" in2="effect1_dropShadow_0_1" result="effect2_dropShadow_0_1"/>
<feColorMatrix in="SourceAlpha" type="matrix" values="0 0 0 0 0 0 0 0 0 0 0 0 0 0 0 0 0 0 127 0" result="hardAlpha"/>
<feOffset dx="4" dy="8"/>
<feGaussianBlur stdDeviation="4.5"/>
<feColorMatrix type="matrix" values="0 0 0 0 0 0 0 0 0 0 0 0 0 0 0 0 0 0 0.05 0"/>
<feBlend mode="normal" in2="effect2_dropShadow_0_1" result="effect3_dropShadow_0_1"/>
<feColorMatrix in="SourceAlpha" type="matrix" values="0 0 0 0 0 0 0 0 0 0 0 0 0 0 0 0 0 0 127 0" result="hardAlpha"/>
<feOffset dx="9" dy="18"/>
<feGaussianBlur stdDeviation="6"/>
<feColorMatrix type="matrix" values="0 0 0 0 0 0 0 0 0 0 0 0 0 0 0 0 0 0 0.03 0"/>
<feBlend mode="normal" in2="effect3_dropShadow_0_1" result="effect4_dropShadow_0_1"/>
<feColorMatrix in="SourceAlpha" type="matrix" values="0 0 0 0 0 0 0 0 0 0 0 0 0 0 0 0 0 0 127 0" result="hardAlpha"/>
<feOffset dx="16" dy="32"/>
<feGaussianBlur stdDeviation="7"/>
<feColorMatrix type="matrix" values="0 0 0 0 0 0 0 0 0 0 0 0 0 0 0 0 0 0 0.01 0"/>
<feBlend mode="normal" in2="effect4_dropShadow_0_1" result="effect5_dropShadow_0_1"/>
<feBlend mode="normal" in="SourceGraphic" in2="effect5_dropShadow_0_1" result="shape"/>
</filter>
<clipPath id="clip0_0_1">
<rect width="128" height="128" fill="white" transform="translate(584.5 74)"/>
</clipPath>
<clipPath id="clip1_0_1">
<rect x="538.8" y="326" width="219.4" height="77" rx="38.5" fill="white"/>
</clipPath>
</defs>
</svg>
